<?xml version="1.0" standalone="no"?>
<!DOCTYPE svg PUBLIC "-//W3C//DTD SVG 20010904//EN"
 "http://www.w3.org/TR/2001/REC-SVG-20010904/DTD/svg10.dtd">
<svg version="1.0" xmlns="http://www.w3.org/2000/svg"
 width="1920.000000pt" height="630.000000pt" viewBox="0 0 1920.000000 630.000000"
 preserveAspectRatio="xMidYMid meet">

<g transform="translate(0.000000,630.000000) scale(0.100000,-0.100000)"
fill="#000000" stroke="none">
<path d="M14263 5228 c4 -1173 0 -1099 63 -1286 109 -329 382 -604 719 -725
174 -62 173 -62 940 -62 l700 0 108 28 c227 59 398 155 552 311 145 146 232
284 290 461 55 171 55 160 55 1296 l0 1049 -1715 0 -1716 0 4 -1072z m1717
796 c39 -12 66 -29 105 -67 l51 -52 50 13 c56 15 187 11 249 -8 98 -29 200
-125 225 -213 14 -45 14 -45 69 -52 31 -4 81 -6 111 -5 30 1 75 3 100 2 25 0
88 1 140 1 183 2 186 1 233 -26 59 -35 87 -91 87 -175 0 -63 -18 -122 -46
-153 -14 -16 -13 -21 10 -56 46 -70 47 -90 44 -758 -3 -625 -3 -630 -25 -671
-32 -59 -80 -101 -142 -125 -50 -19 -72 -20 -206 -17 -164 4 -198 14 -259 74
-59 60 -70 96 -74 247 l-4 138 -36 -8 c-47 -10 -87 -10 -134 0 l-36 8 -4 -143
c-3 -135 -5 -146 -31 -190 -58 -100 -129 -128 -317 -128 -160 0 -218 16 -276
74 -22 22 -46 50 -52 61 -10 20 -11 20 -39 -2 -137 -110 -287 -149 -539 -140
-168 5 -230 18 -344 74 -103 50 -175 123 -228 233 -71 145 -72 155 -71 1013 0
485 4 767 10 793 13 52 59 109 110 134 32 17 59 20 172 20 145 0 207 -12 287
-57 l45 -25 46 31 c86 58 218 76 333 46 33 -9 60 -14 61 -13 32 49 52 71 82
89 82 51 152 60 243 33z"/>
<path d="M16622 5343 l3 -168 30 0 c26 0 30 4 33 31 3 31 5 32 41 27 30 -4 43
0 66 19 23 20 29 35 33 81 6 76 -4 124 -33 153 -25 25 -73 32 -92 13 -8 -8
-13 -8 -17 0 -4 6 -21 11 -37 11 l-29 0 2 -167z m128 78 c26 -49 3 -127 -36
-119 -15 3 -20 13 -22 57 -2 29 -1 60 2 67 8 21 44 17 56 -5z"/>
<path d="M16925 5501 c-38 -16 -58 -50 -63 -106 -10 -119 23 -175 103 -175 57
0 80 12 100 50 22 43 20 147 -5 188 -28 46 -83 64 -135 43z m72 -88 c12 -46 7
-104 -11 -121 -15 -15 -17 -15 -33 0 -17 18 -24 98 -11 131 12 28 47 21 55
-10z"/>
<path d="M17115 5498 c-3 -8 -4 -72 -3 -144 3 -126 4 -129 26 -132 41 -6 52
14 52 97 0 87 11 111 53 114 15 1 27 5 27 10 0 4 0 21 0 37 0 39 -31 41 -65 4
l-23 -25 -4 23 c-2 17 -11 24 -31 26 -16 2 -29 -2 -32 -10z"/>
<path d="M1850 5954 c-221 -27 -466 -79 -632 -135 -429 -145 -770 -351 -1070
-649 l-148 -146 0 -77 c0 -73 9 -94 27 -63 4 7 21 28 36 46 22 25 31 30 37 20
6 -10 14 -8 38 9 17 11 44 21 60 21 17 0 34 5 37 10 3 6 15 10 25 10 10 0 25
6 33 14 11 12 140 42 214 50 13 1 26 6 30 9 3 4 12 2 19 -4 7 -6 19 -9 26 -6
7 2 26 -5 41 -15 20 -14 36 -18 55 -14 15 4 36 7 47 7 11 0 30 10 43 22 26 24
26 24 48 2 9 -8 22 -15 30 -15 8 0 14 -4 14 -10 0 -5 11 -10 25 -10 18 0 25
-5 25 -20 0 -12 7 -20 18 -20 14 0 15 -2 2 -10 -11 -7 -12 -12 -4 -20 9 -9 19
3 38 44 15 31 31 56 37 56 6 0 19 11 30 24 10 13 33 29 51 37 32 13 62 43 63
64 1 6 7 9 14 7 10 -2 12 4 7 23 -6 22 -3 25 19 25 16 0 25 6 25 16 0 14 3 14
15 4 9 -7 19 -10 23 -6 4 4 -1 12 -11 17 -21 12 -23 33 -1 25 14 -5 64 37 62
53 -2 19 3 31 12 26 6 -3 10 -2 10 4 0 5 8 12 18 16 9 3 37 23 62 46 25 22 63
44 84 50 22 6 55 26 73 44 40 40 86 57 138 51 46 -6 97 3 89 15 -3 5 2 12 10
15 9 3 16 12 16 20 0 20 18 17 32 -6 7 -11 19 -20 26 -20 7 0 10 5 6 11 -10
17 156 0 174 -18 18 -18 1 -62 -26 -70 -12 -3 -18 -15 -19 -36 -1 -18 1 -24 4
-14 2 9 9 14 15 10 7 -4 9 0 5 10 -3 10 -2 17 3 17 6 0 10 -4 10 -8 0 -14 48
-33 56 -21 3 6 14 1 25 -12 25 -28 24 -43 -1 -36 -11 3 -20 1 -20 -4 0 -5 -7
-9 -15 -9 -8 0 -15 -5 -15 -11 0 -6 -7 -9 -15 -6 -8 4 -17 1 -21 -5 -4 -6 -3
-8 3 -5 6 4 13 -2 16 -13 3 -12 14 -20 25 -20 12 0 24 -4 27 -10 11 -18 27
-10 22 11 -5 18 -2 20 16 14 12 -4 32 -7 45 -7 12 0 22 -4 22 -9 0 -5 -4 -9
-10 -9 -5 0 -10 -7 -10 -16 0 -12 7 -15 25 -12 13 3 26 0 29 -6 3 -7 5 -7 5 2
1 6 8 12 17 12 14 0 14 -3 4 -15 -12 -14 -10 -15 13 -11 15 2 29 0 32 -5 4 -5
14 -5 25 1 11 6 24 9 29 8 5 -2 17 6 25 17 12 15 18 17 24 7 7 -10 12 -8 26 7
10 11 25 17 37 14 10 -3 26 0 34 7 8 7 22 10 30 6 9 -3 15 0 15 8 0 17 88 86
109 86 9 0 26 7 39 15 16 12 27 13 40 6 14 -7 24 -6 38 4 11 8 37 15 59 15 37
0 42 3 58 40 9 22 17 48 17 58 0 25 24 100 36 112 17 17 121 21 135 4 8 -10 8
-14 0 -14 -6 0 -11 -5 -11 -12 0 -7 7 -5 18 5 16 15 20 15 40 1 28 -19 29 -54
2 -54 -11 0 -20 -4 -20 -9 0 -5 -7 -12 -16 -15 -12 -5 -14 -1 -9 17 5 19 5 20
-5 4 -17 -27 -9 -82 12 -81 14 1 16 -4 12 -22 -3 -13 1 -36 9 -53 11 -22 12
-32 3 -41 -8 -8 -7 -15 7 -24 9 -7 17 -22 18 -32 0 -12 3 -14 6 -6 4 10 9 7
20 -8 9 -12 18 -18 22 -14 3 5 16 14 28 21 17 10 24 9 33 -3 10 -11 16 -12 26
-3 11 9 14 6 14 -15 0 -22 -5 -26 -27 -26 -22 0 -25 -2 -13 -10 13 -9 13 -10
0 -10 -13 0 -13 -1 0 -11 12 -8 9 -10 -12 -6 -39 6 -58 -9 -34 -28 20 -15 41
-11 30 7 -4 6 2 5 15 -1 17 -9 21 -9 19 1 -2 8 9 14 29 16 28 3 34 -1 48 -32
20 -41 25 -44 25 -15 0 11 -4 18 -9 15 -5 -3 -8 6 -8 21 0 15 -6 29 -12 31 -9
3 -8 8 1 20 9 11 9 14 1 9 -7 -5 -17 2 -24 15 -6 13 -24 33 -40 46 -16 13 -29
32 -29 42 0 9 -7 23 -15 30 -33 27 -4 20 39 -10 25 -17 46 -28 46 -24 0 4 18
-10 40 -32 22 -21 38 -44 35 -51 -2 -7 1 -15 7 -19 6 -4 8 -3 4 4 -3 6 -2 13
4 17 5 3 10 2 10 -3 0 -5 11 -21 25 -35 15 -14 22 -28 16 -31 -5 -4 -12 -2
-16 4 -10 16 -25 12 -25 -7 0 -14 2 -15 9 -4 6 9 11 10 15 2 4 -6 12 -9 17 -5
13 7 49 -24 49 -43 0 -7 5 -13 11 -13 8 0 8 -4 1 -13 -14 -17 -10 -40 11 -61
10 -11 17 -33 17 -56 0 -21 5 -42 10 -45 6 -3 10 -17 10 -30 0 -14 14 -35 35
-54 19 -17 34 -34 33 -38 -1 -5 14 -25 35 -46 20 -20 37 -43 37 -51 0 -7 11
-18 24 -24 17 -8 27 -22 32 -47 4 -25 11 -35 25 -35 11 0 19 -4 19 -9 0 -5 19
-11 43 -14 117 -15 218 -52 237 -87 6 -10 26 -24 45 -30 19 -6 35 -18 35 -26
0 -8 4 -14 9 -14 5 0 24 -21 42 -46 19 -25 53 -68 77 -95 23 -27 42 -56 42
-64 0 -19 17 -50 48 -89 15 -19 22 -38 19 -54 -3 -17 4 -34 24 -57 16 -18 29
-41 29 -51 0 -23 29 -107 39 -114 16 -11 28 -76 17 -92 -8 -13 -5 -22 12 -41
12 -13 22 -30 22 -38 0 -8 6 -23 14 -34 7 -11 17 -35 21 -54 4 -19 16 -48 26
-65 10 -17 19 -38 19 -47 0 -8 9 -25 20 -36 10 -12 22 -33 26 -47 3 -15 10
-29 15 -32 16 -9 10 -70 -9 -85 -19 -16 -59 -39 -67 -39 -3 0 -5 6 -5 14 0 8
-5 18 -12 22 -7 5 -9 2 -6 -7 8 -21 -12 -44 -44 -52 -21 -6 -30 -3 -38 13 -10
18 -9 19 15 8 14 -6 28 -9 31 -5 10 9 -6 27 -32 37 -24 9 -24 11 -9 40 16 31
29 38 38 20 3 -6 4 -5 3 2 -4 23 -26 19 -51 -8 -16 -17 -25 -22 -26 -13 -1 8
-2 19 -3 26 0 6 -11 21 -23 33 -13 11 -23 25 -23 30 0 16 20 22 34 11 10 -9
15 -8 20 4 5 13 -5 20 -26 16 -5 0 -8 4 -8 10 0 5 -4 7 -10 4 -6 -3 -9 4 -8
18 2 22 5 24 27 15 17 -6 27 -6 29 1 2 6 8 9 12 6 5 -3 12 0 16 6 4 8 3 9 -5
5 -8 -6 -10 0 -6 21 4 20 3 23 -3 9 -6 -14 -11 -16 -16 -8 -4 7 -17 12 -29 12
-18 0 -25 -9 -36 -45 -7 -25 -18 -45 -25 -45 -6 0 -4 -5 4 -11 11 -7 3 -9 -32
-7 -29 2 -44 -1 -40 -7 3 -5 -2 -4 -11 4 -18 15 -14 31 9 31 8 0 14 7 14 16 0
9 6 30 14 47 13 29 28 112 18 103 -4 -4 -42 6 -75 19 -15 6 -16 4 -8 -17 7
-19 6 -29 -7 -41 -12 -13 -13 -21 -5 -40 7 -15 8 -29 1 -40 -6 -11 -5 -17 1
-17 12 0 2 -41 -17 -62 -8 -10 -19 -15 -25 -11 -5 3 -7 0 -5 -8 3 -8 11 -13
17 -12 15 4 14 -14 -2 -20 -6 -3 -1 -6 13 -8 14 -1 30 -3 37 -3 20 -2 24 -13
9 -25 -9 -8 -21 -8 -39 -2 -21 8 -26 7 -30 -10 -3 -10 -1 -19 4 -19 5 0 9 -6
9 -12 0 -17 -78 -61 -92 -52 -6 4 -8 3 -4 -4 3 -6 1 -14 -5 -18 -7 -4 -9 -3
-5 4 10 17 -5 20 -59 12 -27 -4 -52 -5 -55 -1 -7 9 -32 14 -55 12 -32 -4 -38
-3 -92 2 -29 3 -57 9 -63 12 -6 4 -16 3 -23 -2 -7 -4 -21 -8 -32 -8 -11 0 -25
-6 -32 -15 -10 -13 -13 -13 -30 3 -11 9 -24 17 -30 17 -6 0 -13 5 -15 11 -4
12 -58 23 -110 23 -21 0 -38 4 -38 8 0 5 -22 22 -50 39 -44 27 -56 44 -51 72
1 5 -3 6 -9 2 -6 -3 -8 -11 -5 -16 4 -5 1 -9 -4 -9 -6 0 -11 3 -11 8 0 7 -37
52 -77 95 -9 9 -25 17 -35 17 -11 0 -17 4 -14 9 4 5 2 11 -3 13 -4 1 -11 20
-15 42 -6 32 -5 38 8 33 8 -3 18 -2 21 3 4 6 11 10 16 10 6 0 7 -5 4 -11 -4
-6 -1 -9 6 -8 8 1 22 -1 31 -5 9 -4 25 -3 35 2 21 11 46 5 37 -9 -3 -5 2 -9
11 -9 27 0 14 24 -52 94 -49 52 -69 66 -91 66 -19 0 -29 5 -29 15 0 9 6 14 13
11 6 -2 11 2 10 10 -2 16 -26 43 -26 30 0 -4 -16 6 -35 23 -20 17 -45 31 -56
31 -20 0 -20 -1 -6 -24 26 -39 2 -49 -49 -20 -23 13 -54 24 -68 24 -14 0 -26
5 -26 10 0 6 -11 10 -24 10 -13 0 -35 10 -50 21 -23 18 -29 19 -39 8 -7 -8
-11 -13 -11 -11 1 2 -10 15 -25 30 -14 15 -33 38 -41 50 -8 12 -22 25 -31 27
-15 5 -56 99 -63 145 -1 9 -9 27 -19 40 -9 13 -14 27 -12 31 3 4 -2 10 -11 13
-9 4 -12 11 -7 18 4 7 9 36 9 63 1 28 5 73 9 100 4 28 8 71 8 98 0 26 4 47 9
47 4 0 8 17 8 38 0 20 9 54 20 74 10 20 21 48 22 62 2 14 7 28 11 32 4 4 7 18
7 31 0 13 6 23 15 23 8 0 17 14 21 38 4 20 11 43 17 50 6 8 5 12 -4 12 -7 0
-3 10 12 26 22 23 23 26 6 35 -9 6 -17 21 -17 34 0 15 -6 25 -14 25 -9 0 -13
-9 -12 -24 2 -17 -3 -26 -15 -29 -15 -4 -19 0 -19 19 0 22 -2 23 -20 14 -22
-12 -60 -5 -60 10 0 6 10 6 25 0 21 -8 25 -7 25 10 0 10 -5 22 -10 25 -6 4 -9
3 -8 -2 2 -4 -2 -8 -7 -8 -5 0 -9 3 -8 8 3 6 -12 11 -29 8 -9 -1 1 27 19 55
12 18 12 22 0 27 -16 6 -39 -6 -36 -19 4 -21 -2 -24 -25 -9 -16 11 -26 13 -31
6 -3 -7 2 -11 14 -11 14 0 23 -9 27 -25 7 -30 -2 -59 -16 -50 -5 3 -10 1 -10
-4 0 -6 -12 -11 -26 -11 -22 0 -25 4 -21 21 3 12 3 18 0 15 -3 -3 -14 -1 -24
5 -16 8 -19 6 -19 -11 0 -11 -5 -20 -11 -20 -5 0 -7 5 -4 11 8 11 -19 45 -49
61 -16 9 -18 7 -13 -11 6 -25 -5 -27 -23 -6 -10 12 -10 19 -2 27 7 7 12 15 12
19 0 9 -47 27 -92 35 -21 3 -35 10 -32 15 3 5 1 9 -4 9 -6 0 -12 -7 -16 -15
-3 -9 -12 -12 -22 -8 -13 5 -16 3 -11 -10 7 -20 -8 -23 -17 -4 -4 6 -4 -3 -1
-20 3 -26 0 -35 -18 -44 -19 -10 -20 -10 -11 2 11 13 3 59 -10 59 -3 0 -3 -7
0 -15 4 -9 0 -15 -8 -15 -10 0 -13 -12 -11 -40 1 -29 -1 -39 -10 -34 -8 5 -8
3 1 -7 17 -18 15 -36 -3 -36 -9 0 -14 6 -11 14 6 15 -6 17 -20 3 -5 -5 -26
-11 -47 -14 -31 -4 -40 -1 -53 19 -9 13 -12 30 -8 36 5 8 3 9 -5 5 -7 -5 -10
-14 -7 -22 3 -9 -2 -14 -14 -14 -11 0 -20 -7 -20 -15 0 -8 -8 -15 -17 -15 -15
0 -15 2 -4 9 11 7 10 10 -5 14 -16 4 -16 5 3 6 16 1 24 9 29 29 3 15 7 33 10
40 2 7 -5 12 -18 12 -17 0 -20 -4 -15 -30 5 -22 3 -28 -8 -24 -16 7 -50 -40
-40 -56 3 -6 10 -8 15 -5 15 9 19 -10 5 -28 -9 -12 -21 -16 -39 -13 -21 4 -27
0 -32 -20 -5 -20 -11 -24 -29 -20 -14 4 -29 -2 -43 -14 -12 -12 -23 -16 -27
-10 -7 12 -45 14 -45 3 0 -17 18 -35 28 -29 6 4 20 2 32 -4 11 -5 29 -14 40
-20 11 -5 26 -10 35 -10 8 0 12 -6 9 -14 -3 -8 -1 -17 5 -20 6 -4 8 -14 5 -24
-5 -14 -4 -14 4 -2 6 8 7 19 3 25 -11 13 -2 77 10 69 5 -3 9 -21 9 -40 0 -32
2 -34 33 -34 23 0 28 3 17 10 -8 5 -11 12 -7 17 8 7 27 -13 27 -29 0 -4 -14
-8 -31 -10 -18 -2 -37 -10 -42 -19 -12 -20 -2 -53 14 -43 8 4 7 9 -2 15 -10 6
-11 11 -3 19 9 9 16 6 26 -9 11 -15 21 -19 34 -15 16 6 17 5 7 -7 -22 -23 -16
-42 12 -37 14 3 28 1 32 -5 4 -6 1 -7 -8 -2 -12 8 -12 6 0 -8 8 -10 9 -17 3
-17 -6 0 -14 5 -17 10 -8 12 -55 13 -55 1 0 -5 -16 -12 -35 -15 -32 -6 -34 -9
-20 -22 8 -9 16 -23 16 -32 1 -9 4 -3 8 13 5 26 11 30 44 33 28 2 37 0 37 -12
0 -9 6 -16 14 -16 8 0 18 -5 22 -12 4 -7 3 -8 -4 -4 -7 4 -12 2 -12 -4 0 -6
-4 -8 -10 -5 -5 3 -10 1 -10 -4 0 -6 6 -11 14 -11 16 0 26 -21 26 -55 0 -16 7
-24 25 -28 20 -3 25 -1 23 12 -2 9 -11 15 -20 15 -19 -2 -17 24 3 36 7 5 14
15 15 22 0 7 2 18 2 24 2 13 39 27 62 24 23 -3 6 10 -19 15 -32 6 -43 15 -37
32 4 9 1 23 -6 31 -8 10 2 7 27 -8 53 -31 76 -51 70 -61 -3 -4 2 -15 11 -23 8
-9 14 -22 12 -28 -3 -7 6 -23 19 -36 13 -13 21 -27 18 -32 -3 -5 4 -11 15 -15
20 -6 29 -45 10 -45 -5 0 -10 9 -10 20 0 11 -3 19 -7 19 -26 -4 -41 5 -58 34
-11 17 -19 35 -18 38 1 3 -3 6 -10 6 -7 0 -22 3 -34 7 -18 6 -23 3 -23 -9 0
-9 -4 -14 -9 -10 -13 8 -22 -10 -15 -29 3 -9 15 -16 26 -16 16 0 18 4 12 22
-6 19 -5 21 8 11 8 -7 18 -10 22 -6 4 4 9 -3 12 -15 4 -12 15 -24 25 -27 10
-4 19 -15 19 -25 0 -10 9 -22 21 -25 21 -7 21 -7 1 -19 -11 -6 -37 -24 -57
-40 l-37 -30 -19 25 c-10 13 -16 33 -13 44 4 15 1 14 -10 -5 -11 -20 -22 -25
-53 -25 -30 0 -38 -4 -37 -17 1 -10 -3 -15 -8 -12 -5 4 -7 16 -3 28 3 11 8 30
10 41 3 17 2 18 -7 4 -9 -13 -16 -14 -41 -5 -23 8 -31 8 -34 -2 -3 -6 -9 -10
-13 -7 -5 3 -2 14 7 25 21 24 26 50 8 43 -8 -2 -11 -12 -8 -20 5 -12 1 -14
-18 -7 -13 4 -31 8 -39 9 -8 1 -22 5 -30 8 -24 9 -71 18 -119 24 -33 4 -42 2
-36 -7 5 -8 2 -10 -11 -6 -11 3 -26 1 -34 -4 -18 -11 -51 15 -44 35 3 7 -9 28
-25 46 -17 18 -31 39 -31 45 0 9 -21 24 -34 24 -10 0 3 -50 17 -64 9 -10 17
-24 17 -31 0 -8 14 -24 30 -37 17 -12 30 -28 30 -35 0 -7 4 -13 9 -13 5 0 11
-14 15 -31 4 -23 10 -30 22 -25 13 5 15 1 11 -16 -3 -13 -2 -44 2 -70 7 -45
-2 -69 -12 -30 -2 9 -3 5 -1 -10 2 -15 -1 -30 -7 -34 -6 -4 -4 -10 5 -17 12
-9 13 -16 5 -27 -9 -13 -10 -12 -5 3 8 24 -6 21 -24 -5 -17 -27 -18 -35 -9
-69 8 -30 -6 -59 -28 -59 -22 0 -97 -77 -80 -83 6 -3 0 -10 -16 -16 -16 -6
-25 -16 -21 -22 5 -8 1 -8 -13 0 -11 6 -23 7 -27 4 -3 -3 -6 -1 -6 5 0 7 8 12
18 12 14 0 15 2 2 10 -13 8 -12 10 3 10 18 0 57 34 57 50 0 6 -18 10 -40 10
-28 0 -40 -4 -40 -15 0 -20 -88 -85 -115 -85 -57 0 -30 60 55 120 27 19 49 40
50 47 0 7 7 10 15 6 13 -4 12 3 -5 46 -11 29 -20 65 -20 81 0 17 -4 30 -10 30
-5 0 -7 -7 -3 -16 5 -14 -11 -33 -28 -34 -9 0 -28 50 -31 85 -3 26 1 30 30 36
24 5 32 3 32 -8 0 -8 5 -11 10 -8 14 9 13 31 -4 68 -8 18 -17 41 -21 52 -5 12
-9 15 -12 8 -3 -10 -8 -9 -19 2 -9 8 -12 20 -8 26 5 8 3 9 -5 5 -7 -5 -10 -14
-7 -22 3 -8 0 -14 -7 -14 -7 0 -13 -9 -14 -20 -1 -15 4 -20 22 -20 12 0 26 -8
29 -17 4 -10 4 -14 0 -10 -4 4 -16 -1 -27 -10 -18 -17 -19 -17 -33 2 -8 10
-14 27 -14 37 0 10 -6 18 -14 18 -8 0 -17 7 -20 16 -8 22 -8 26 3 19 5 -3 12
-1 15 4 4 5 2 13 -4 16 -6 4 -10 14 -9 23 3 35 -2 42 -52 66 -28 13 -56 34
-63 47 -12 24 -36 37 -36 20 0 -6 8 -11 18 -11 10 0 13 -3 6 -8 -6 -4 -13 -15
-17 -24 -3 -10 -18 -20 -32 -24 -14 -3 -25 -10 -25 -16 0 -5 -4 -7 -9 -4 -17
11 -33 -44 -16 -57 5 -5 0 -6 -12 -2 -18 5 -21 2 -19 -20 2 -14 -3 -29 -10
-33 -7 -4 -14 -22 -16 -40 -2 -26 -6 -31 -20 -26 -13 4 -16 1 -12 -10 3 -9 1
-16 -5 -16 -6 0 -18 -14 -26 -30 -16 -31 -16 -31 15 -42 34 -11 36 -35 2 -30
-27 4 -36 -12 -20 -38 11 -17 11 -22 -2 -30 -9 -5 -19 -5 -26 1 -14 11 -25 49
-15 49 4 0 12 13 18 29 10 27 7 35 -25 82 -20 28 -38 46 -40 39 -3 -7 1 -16 8
-20 9 -5 7 -11 -7 -21 -22 -16 -25 -81 -5 -101 7 -7 12 -18 12 -24 0 -7 12
-26 26 -43 18 -22 23 -37 19 -52 -4 -12 -8 -27 -9 -33 -1 -6 -8 -21 -14 -33
-11 -19 -10 -23 2 -23 9 0 12 -7 9 -20 -3 -11 -9 -17 -14 -14 -5 3 -7 9 -4 13
2 5 -5 17 -18 27 -17 15 -19 16 -8 2 11 -15 10 -19 -12 -29 -22 -10 -31 -8
-61 11 -36 22 -36 22 -33 1 2 -11 6 -23 9 -27 8 -7 -11 -44 -32 -61 -20 -17
-40 -16 -40 1 0 27 25 61 43 58 23 -5 22 5 -4 18 -18 10 -26 6 -65 -33 -43
-44 -56 -81 -31 -90 9 -4 9 -7 0 -18 -11 -11 -13 -10 -13 3 0 9 -5 20 -10 23
-6 4 -10 3 -8 -2 3 -16 -23 -92 -35 -100 -22 -13 -47 -13 -47 1 0 7 3 28 6 45
5 24 11 31 23 26 8 -3 12 -3 8 1 -8 8 22 65 41 77 18 12 15 30 -4 23 -9 -4
-27 1 -40 9 -14 9 -25 11 -25 5 -1 -5 -2 -14 -3 -20 0 -5 -10 -16 -21 -25 -20
-16 -20 -16 1 -6 15 7 23 6 31 -8 13 -21 7 -33 -25 -50 -12 -7 -20 -16 -17
-21 3 -5 -1 -12 -8 -17 -29 -17 -40 -60 -43 -156 -2 -55 -5 -101 -7 -104 -3
-2 5 -25 16 -49 19 -38 26 -44 46 -41 15 3 32 -2 44 -14 13 -12 16 -19 8 -19
-9 0 -12 -10 -9 -29 3 -20 -1 -33 -14 -42 -10 -8 -18 -16 -18 -19 0 -3 21 -23
47 -45 26 -21 43 -34 39 -27 -9 15 9 16 34 2 16 -8 18 -7 14 4 -9 23 14 31
132 40 37 3 41 1 37 -15 -3 -11 0 -19 6 -19 6 0 20 -9 31 -20 27 -27 44 -25
60 8 11 22 14 24 17 10 3 -10 9 -18 15 -18 6 0 8 -9 5 -20 -6 -24 24 -28 43
-5 7 8 16 12 21 9 5 -3 6 3 2 13 -6 16 -5 16 10 4 15 -12 17 -12 12 1 -4 9 1
18 10 22 9 3 14 10 10 16 -3 5 3 18 14 29 11 11 17 22 14 25 -3 3 6 21 21 41
25 32 32 35 77 35 46 0 62 11 39 25 -5 3 -10 12 -10 18 0 7 4 6 10 -3 10 -15
12 -14 26 11 8 15 10 16 24 1 13 -14 12 -15 -3 -9 -11 4 -17 2 -16 -6 1 -6 -2
-27 -6 -45 -6 -26 -12 -32 -29 -30 -11 2 -24 7 -28 13 -4 5 -10 6 -15 1 -4 -4
0 -12 10 -17 9 -6 14 -16 11 -22 -5 -8 -3 -8 7 1 7 6 18 12 24 12 5 0 2 -5 -7
-11 -10 -5 -18 -19 -18 -31 0 -16 -5 -19 -23 -14 -13 3 -32 0 -41 -7 -16 -12
-16 -14 -2 -26 9 -8 16 -21 16 -30 0 -14 -2 -14 -10 -1 -9 13 -12 13 -21 -3
-10 -17 -12 -17 -36 -1 l-26 17 23 -34 c13 -19 29 -37 34 -41 6 -4 -1 -11 -16
-17 -25 -9 -52 -43 -53 -66 0 -5 -6 -11 -12 -11 -7 -1 -17 -2 -22 -3 -5 0 -11
-10 -14 -21 -3 -12 -14 -20 -25 -20 -12 0 -24 -5 -27 -10 -4 -6 -16 -8 -27 -4
-18 5 -19 4 -7 -9 8 -8 16 -13 19 -12 3 2 12 0 19 -4 17 -11 6 -48 -14 -48
-11 0 -12 4 -4 14 8 9 8 13 1 13 -6 0 -17 -9 -25 -20 -12 -18 -15 -18 -36 -4
-17 13 -25 14 -34 5 -9 -9 -8 -11 4 -6 22 8 46 -22 31 -37 -9 -9 -15 -9 -24 0
-9 9 -9 12 2 13 8 1 4 4 -10 8 -17 5 -24 13 -22 26 3 12 -1 16 -12 12 -18 -7
-80 16 -69 26 3 4 -1 7 -11 7 -9 0 -14 5 -11 10 8 13 1 13 -46 -2 -35 -10 -44
-19 -40 -40 0 -5 -5 -8 -11 -8 -9 0 -8 -3 2 -10 16 -10 12 -12 -44 -25 l-29
-6 29 -18 c17 -11 32 -14 35 -8 4 5 13 6 20 3 8 -4 5 0 -6 10 -20 16 -20 16 4
11 21 -5 23 -3 19 29 -3 28 -1 34 15 34 10 0 15 5 12 10 -11 18 4 11 25 -12
26 -29 25 -38 -4 -38 -54 0 -42 -46 12 -47 21 0 30 2 20 6 -10 3 -14 11 -10
17 9 14 43 15 59 2 7 -5 22 -6 35 -3 13 4 20 4 16 0 -4 -4 -22 -11 -40 -15
-31 -7 -31 -8 -6 -9 25 -1 52 -21 29 -21 -19 0 -12 -22 8 -27 18 -5 18 -6 3
-33 -9 -15 -22 -26 -29 -23 -7 3 -10 9 -7 14 3 5 0 9 -5 9 -6 0 -10 6 -9 12 4
18 -38 22 -45 4 -4 -10 -1 -13 7 -10 7 3 18 -2 25 -10 10 -12 9 -14 -9 -9 -16
4 -19 2 -14 -11 3 -9 2 -16 -2 -16 -18 0 -33 16 -44 44 -10 27 -25 29 -25 3 0
-7 -14 -11 -33 -11 -36 2 -35 4 -15 -58 4 -13 -1 -17 -26 -16 -17 1 -31 6 -31
11 0 6 -3 7 -7 3 -4 -4 -8 -15 -8 -24 0 -9 -6 -16 -12 -14 -7 1 -13 -3 -13 -9
0 -6 9 -9 19 -6 45 11 28 -61 -22 -103 -28 -22 -30 -23 -24 -5 6 17 5 18 -5 5
-7 -8 -25 -14 -40 -12 -23 3 -26 0 -21 -20 4 -13 12 -27 20 -31 17 -10 17 -30
1 -24 -18 6 -50 -12 -42 -24 3 -6 -6 -21 -20 -34 -29 -26 -36 -58 -11 -49 8 4
15 1 15 -6 0 -6 -4 -8 -10 -5 -5 3 -10 1 -10 -6 0 -8 -4 -8 -13 -1 -9 8 -17 8
-27 0 -12 -8 -12 -9 2 -4 14 4 18 0 18 -19 0 -15 -6 -25 -14 -25 -7 0 -16 -11
-18 -25 -4 -20 -1 -25 16 -26 11 0 16 -3 9 -6 -14 -5 32 -53 51 -53 6 0 17 -9
24 -20 7 -12 8 -20 2 -20 -5 0 -10 -4 -10 -10 0 -5 6 -10 13 -10 6 0 26 -13
43 -28 17 -15 47 -41 67 -58 20 -17 34 -34 30 -37 -3 -4 -1 -7 6 -7 8 0 11 -7
7 -15 -3 -8 -1 -15 4 -15 6 0 10 -7 10 -15 0 -8 7 -15 15 -15 9 0 15 -10 15
-26 0 -20 4 -25 23 -22 16 2 23 -3 25 -20 2 -13 -3 -25 -13 -28 -20 -8 -11
-62 14 -82 9 -7 10 -11 4 -7 -8 3 -11 1 -9 -7 3 -7 7 -25 10 -40 5 -21 12 -28
31 -28 13 0 27 -5 31 -12 5 -8 2 -9 -9 -5 -11 4 -17 1 -17 -8 0 -8 -4 -15 -10
-15 -5 0 -10 -7 -10 -15 0 -8 5 -15 11 -15 5 0 7 -5 4 -10 -10 -16 5 -50 21
-50 21 0 17 -16 -8 -27 -15 -6 -18 -12 -10 -17 7 -4 12 -2 12 3 0 16 34 13 56
-5 10 -8 14 -13 8 -10 -7 3 -14 -1 -18 -9 -4 -11 2 -15 24 -15 16 0 32 -4 35
-10 4 -6 -5 -10 -19 -10 -33 0 -39 -2 -52 -14 -15 -14 17 -46 34 -33 7 5 15 7
18 4 11 -10 -7 -27 -29 -28 -12 0 -16 -3 -10 -6 7 -2 13 -9 13 -15 0 -6 -7 -8
-15 -5 -8 4 -17 1 -21 -5 -5 -8 3 -9 25 -5 29 6 31 5 21 -13 -15 -28 -12 -35
8 -17 10 10 21 14 25 11 7 -8 -3 -37 -17 -46 -7 -6 -6 -11 4 -18 13 -8 12 -10
-5 -11 -16 0 -14 -3 8 -11 15 -5 27 -14 27 -19 0 -6 -4 -8 -9 -4 -15 9 -26
-65 -12 -86 16 -27 14 -47 -7 -53 -17 -6 -48 -76 -34 -76 4 0 7 -25 6 -55 -1
-54 0 -55 32 -61 33 -6 35 -11 16 -57 -7 -15 -11 -31 -10 -35 1 -4 -2 -15 -7
-25 -9 -22 -16 -17 82 -66 235 -117 530 -211 823 -262 178 -31 540 -38 735
-14 247 29 472 84 678 166 128 50 384 176 457 223 48 32 51 36 28 36 -15 0
-39 -5 -53 -10 -18 -7 -39 -7 -63 0 -25 7 -38 6 -43 -1 -4 -6 -31 -12 -60 -14
-30 -1 -63 -6 -73 -10 -12 -5 -17 -5 -13 2 3 5 0 10 -8 10 -8 0 -15 -4 -15 -8
0 -11 -77 -22 -92 -13 -7 5 -21 7 -30 6 -10 -2 -18 1 -18 6 0 12 -35 22 -48
13 -5 -3 -11 -15 -14 -26 -3 -18 -11 -20 -76 -19 -56 1 -72 -2 -68 -12 3 -7 1
-16 -4 -19 -6 -4 -10 -1 -10 5 0 7 -7 9 -16 6 -12 -4 -15 -2 -10 9 4 11 -2 15
-24 15 -22 0 -28 -4 -24 -15 4 -8 1 -15 -5 -15 -6 0 -11 5 -11 10 0 6 -4 10
-10 10 -5 0 -7 -7 -4 -15 8 -19 3 -19 -31 -1 -23 12 -24 15 -8 18 10 3 -6 3
-36 2 -33 -2 -61 -9 -70 -19 -14 -14 -14 -15 0 -10 9 3 23 -3 34 -15 10 -11
25 -20 32 -20 26 0 7 -25 -19 -27 -17 -1 -29 5 -33 15 -4 11 -9 13 -13 6 -4
-6 -18 -15 -31 -19 -16 -5 -21 -4 -17 4 4 6 2 11 -3 11 -6 0 -11 -4 -11 -9 0
-5 -13 -11 -29 -13 -17 -2 -28 -1 -25 3 2 4 0 10 -6 14 -5 3 -10 -1 -10 -9 0
-9 -5 -16 -11 -16 -5 0 -8 4 -5 9 3 4 -1 17 -9 27 -11 15 -18 17 -32 9 -23
-13 -66 -8 -57 7 5 7 -2 9 -20 4 -17 -4 -25 -3 -22 3 4 5 1 13 -5 17 -7 4 -9
3 -5 -4 3 -6 2 -13 -4 -17 -5 -3 -10 -3 -10 2 0 13 -68 55 -79 49 -5 -3 -22 7
-38 24 -15 16 -38 30 -50 30 -24 0 -38 29 -28 60 8 24 -1 26 -22 5 -20 -20
-30 -11 -12 11 11 14 9 20 -20 44 -20 16 -31 32 -27 38 4 7 1 12 -7 12 -8 0
-20 7 -27 15 -11 13 -8 13 19 4 17 -6 31 -17 31 -25 0 -15 1 -15 67 -18 23 -2
53 -10 67 -20 14 -9 26 -14 26 -11 0 13 -34 39 -54 42 -11 2 -31 15 -43 31
-13 15 -27 27 -33 27 -13 0 -13 11 2 35 7 11 21 20 30 20 20 0 24 -15 6 -26
-7 -4 -8 -3 -4 4 11 17 -9 15 -24 -3 -11 -13 -9 -17 10 -18 6 0 40 -35 40 -42
0 -3 3 -5 6 -4 4 0 11 -5 15 -13 7 -10 9 -10 9 0 0 7 4 11 9 7 5 -3 12 -1 15
4 4 5 -1 11 -10 13 -9 2 -22 20 -29 40 -12 36 -12 37 9 26 30 -16 46 -34 38
-44 -4 -5 1 -2 10 5 11 8 18 9 18 3 0 -6 -4 -14 -10 -17 -13 -8 -13 -25 1 -25
5 0 7 5 3 11 -9 15 38 0 48 -15 14 -21 8 -30 -8 -10 -15 18 -15 18 -6 0 11
-23 44 -32 35 -10 -3 9 2 14 13 15 11 0 14 3 6 6 -6 2 -9 9 -6 14 3 6 11 6 20
-2 7 -6 11 -15 8 -20 -8 -13 10 -11 23 2 9 9 12 7 10 -8 -1 -13 -7 -19 -18
-16 -12 4 -16 -1 -14 -19 4 -34 3 -34 25 -35 21 -2 28 13 8 19 -7 3 -5 13 7
31 31 48 41 20 19 -54 -5 -19 61 -43 84 -30 8 5 24 6 35 3 14 -4 18 -1 13 7
-5 8 -22 10 -50 6 -35 -6 -44 -4 -50 10 -5 13 -2 16 10 11 12 -5 15 -2 10 10
-7 19 10 44 30 44 7 0 15 -9 19 -19 3 -12 12 -18 20 -15 13 5 38 -27 33 -43
-2 -4 2 -9 7 -9 32 -4 89 41 68 54 -5 4 -9 15 -7 25 1 11 0 16 -4 13 -3 -4
-12 8 -19 25 -11 26 -11 35 -1 48 12 14 11 14 -5 2 -10 -8 -16 -20 -13 -27 3
-7 -2 -15 -11 -18 -11 -4 -14 -2 -9 9 3 8 1 15 -4 15 -4 0 -4 16 2 36 5 20 7
38 4 42 -3 3 -6 -2 -6 -11 0 -12 -9 -17 -29 -17 -24 0 -29 -4 -28 -20 1 -11 5
-20 9 -20 4 0 8 -8 8 -18 0 -10 5 -23 12 -30 15 -15 3 -28 -14 -15 -24 19 -58
22 -58 6 0 -8 -5 -11 -11 -7 -6 3 -8 16 -4 28 15 54 15 57 -15 62 -16 4 -31
12 -34 20 -6 16 27 37 40 26 5 -4 1 2 -9 14 -19 23 -22 44 -7 44 6 0 10 -7 10
-15 0 -8 13 -21 29 -29 26 -14 30 -14 41 -1 7 8 21 15 32 15 10 0 16 5 13 10
-4 6 5 24 19 41 15 17 23 35 20 41 -4 6 1 8 12 6 11 -2 18 -10 17 -16 -2 -7 2
-12 7 -12 13 0 13 6 0 31 -7 13 -7 19 0 19 5 0 9 3 9 7 -1 5 -1 17 0 27 1 20
1 20 15 1 8 -11 12 -24 8 -30 -3 -5 2 -4 11 4 9 7 15 17 12 21 -3 5 2 15 10
23 8 9 15 25 15 36 0 30 27 16 33 -17 3 -15 0 -30 -6 -34 -9 -6 -9 -8 -1 -8 6
0 17 7 24 15 9 11 8 20 -10 45 l-21 30 22 0 c18 0 20 2 8 16 -18 21 2 35 56
38 11 1 20 6 20 12 0 17 31 43 41 34 5 -5 22 -6 37 -3 19 4 24 8 17 13 -7 4
-9 13 -6 19 11 17 36 13 43 -6 10 -26 29 -43 48 -43 9 0 13 -5 10 -11 -4 -6 2
-13 14 -16 12 -3 21 -11 21 -18 0 -24 30 -46 48 -36 12 7 22 3 37 -12 33 -36
77 -67 86 -62 4 3 15 -8 23 -24 9 -16 24 -32 35 -36 10 -3 26 -14 36 -25 10
-11 26 -20 37 -20 11 0 18 -7 18 -20 0 -14 6 -20 23 -19 37 1 69 -9 92 -31 12
-11 28 -20 37 -20 8 0 23 -9 33 -20 9 -10 20 -19 24 -18 25 3 51 -4 46 -12 -3
-6 3 -10 15 -10 15 0 20 -5 18 -17 -2 -10 5 -26 14 -35 25 -25 22 -70 -5 -104
-50 -64 140 84 274 214 163 158 247 255 360 417 297 424 432 786 484 1290 52
500 -49 1013 -292 1489 -218 425 -617 840 -1044 1085 -263 152 -644 277 -989
327 -100 14 -515 27 -590 18z m1335 -332 c-8 -8 -25 10 -19 20 4 6 9 5 15 -3
4 -7 6 -15 4 -17z m0 -32 c3 -5 1 -10 -4 -10 -6 0 -11 5 -11 10 0 6 2 10 4 10
3 0 8 -4 11 -10z m-1074 -42 c20 -25 26 -53 9 -43 -6 4 -17 2 -24 -4 -9 -8
-18 -7 -32 4 -18 14 -18 14 5 15 19 0 21 3 11 15 -11 13 -7 35 6 35 3 0 14
-10 25 -22z m1094 -7 c-6 -5 -25 10 -25 20 0 5 6 4 14 -3 8 -7 12 -15 11 -17z
m-67 -32 c-3 -8 -7 -3 -11 10 -4 17 -3 21 5 13 5 -5 8 -16 6 -23z m24 -24 c3
-14 1 -25 -3 -25 -5 0 -9 11 -9 25 0 14 2 25 4 25 2 0 6 -11 8 -25z m-949 -27
c4 1 7 -5 7 -13 0 -20 -46 -20 -54 1 -11 29 -6 35 17 22 12 -7 25 -11 30 -10z
m937 -18 c0 -5 -4 -10 -10 -10 -5 0 -10 5 -10 10 0 6 5 10 10 10 6 0 10 -4 10
-10z m37 -52 c-3 -8 -6 -5 -6 6 -1 11 2 17 5 13 3 -3 4 -12 1 -19z m-811 -195
c-3 -3 -13 -3 -22 1 -15 6 -15 8 2 27 l19 21 3 -22 c2 -12 1 -24 -2 -27z m104
-14 c0 -5 -4 -9 -10 -9 -5 0 -10 7 -10 16 0 8 5 12 10 9 6 -3 10 -10 10 -16z
m188 -54 c-3 -3 -9 2 -12 12 -6 14 -5 15 5 6 7 -7 10 -15 7 -18z m-48 -9 c0
-2 3 -11 6 -20 4 -10 1 -16 -10 -16 -9 0 -13 6 -10 14 3 8 -2 16 -13 19 -14 4
-14 5 5 6 12 0 22 -1 22 -3z m44 -91 c-4 -8 -8 -15 -10 -15 -2 0 -4 7 -4 15 0
8 4 15 10 15 5 0 7 -7 4 -15z m66 5 c0 -5 -4 -10 -10 -10 -5 0 -10 5 -10 10 0
6 5 10 10 10 6 0 10 -4 10 -10z m-800 -50 c0 -5 -2 -10 -4 -10 -3 0 -8 5 -11
10 -3 6 -1 10 4 10 6 0 11 -4 11 -10z m355 -40 c3 -5 1 -10 -4 -10 -6 0 -11 5
-11 10 0 6 2 10 4 10 3 0 8 -4 11 -10z m30 -20 c3 -5 1 -10 -4 -10 -6 0 -11 5
-11 10 0 6 2 10 4 10 3 0 8 -4 11 -10z m-295 -65 c0 -2 -9 -3 -19 -2 -11 0
-18 5 -15 9 4 6 34 0 34 -7z m350 -5 c0 -5 -5 -10 -11 -10 -5 0 -7 5 -4 10 3
6 8 10 11 10 2 0 4 -4 4 -10z m-313 -92 c-24 -15 -40 27 -28 72 1 3 10 -11 20
-30 14 -25 16 -37 8 -42z m483 -19 c-12 -22 -33 -21 -38 2 -2 9 7 15 23 17 23
2 24 0 15 -19z m-486 -5 c11 -10 16 -11 16 -3 0 7 2 10 5 7 8 -8 -5 -36 -20
-42 -9 -3 -12 0 -9 8 3 8 -5 16 -20 20 -14 3 -26 11 -26 16 0 16 37 12 54 -6z
m241 -184 c-3 -5 -11 -10 -16 -10 -6 0 -7 5 -4 10 3 6 11 10 16 10 6 0 7 -4 4
-10z m-1249 -22 c4 -7 3 -8 -4 -4 -7 4 -12 2 -12 -3 0 -6 -7 -11 -15 -11 -21
0 -19 18 3 23 9 3 18 5 19 6 1 0 5 -4 9 -11z m1246 -50 c-2 -10 -9 -15 -14
-12 -5 3 -7 12 -4 20 3 9 0 11 -12 7 -15 -6 -15 -4 -4 10 17 20 41 2 34 -25z
m108 32 c0 -5 -2 -10 -4 -10 -3 0 -8 5 -11 10 -3 6 -1 10 4 10 6 0 11 -4 11
-10z m-440 -31 c0 -6 -4 -7 -10 -4 -5 3 -10 11 -10 16 0 6 5 7 10 4 6 -3 10
-11 10 -16z m139 -6 c9 -18 9 -23 -1 -23 -8 0 -15 12 -16 27 -2 29 0 29 17 -4z
m221 -41 c-12 -2 -27 1 -34 8 -8 8 -6 9 8 4 16 -6 18 -4 13 17 l-6 24 21 -25
20 -25 -22 -3z m-249 -17 c-4 -17 -6 -18 -9 -2 -2 9 -8 17 -13 17 -6 0 -7 -5
-3 -12 4 -7 3 -8 -4 -4 -7 4 -12 15 -12 26 0 16 3 17 24 7 17 -8 22 -17 17
-32z m114 26 c-5 -15 -1 -18 22 -15 26 2 26 1 10 -11 -18 -13 -18 -14 0 -24
10 -6 13 -11 5 -11 -7 0 -24 11 -38 25 -21 21 -23 27 -12 40 17 19 20 19 13
-4z m-70 -11 c3 -5 -1 -10 -10 -10 -9 0 -13 5 -10 10 3 6 8 10 10 10 2 0 7 -4
10 -10z m-224 -27 c12 -16 12 -17 -2 -6 -9 7 -20 9 -24 5 -5 -4 -5 -1 -1 6 9
16 11 15 27 -5z m419 -23 c0 -5 -5 -12 -10 -15 -6 -4 -8 -10 -5 -15 3 -5 1
-11 -5 -15 -5 -3 -10 -2 -10 3 0 6 -8 9 -17 8 -23 -1 -28 28 -8 48 12 12 21
13 36 6 10 -6 19 -15 19 -20z m-1066 -7 c-19 -74 -45 -111 -57 -80 -3 6 -6 1
-7 -13 -1 -25 -1 -25 -10 -2 -11 27 -30 29 -30 3 0 -40 -33 -34 -37 7 -2 17 4
25 25 33 15 6 40 26 55 45 36 43 71 47 61 7z m1110 11 c20 -20 20 -19 -5 -21
-12 -1 -19 1 -15 4 3 3 1 12 -5 20 -16 19 6 17 25 -3z m-420 -10 c3 -8 2 -12
-4 -9 -6 3 -10 10 -10 16 0 14 7 11 14 -7z m-34 -14 c6 -11 8 -20 6 -20 -3 0
-10 9 -16 20 -6 11 -8 20 -6 20 3 0 10 -9 16 -20z m-855 -37 c13 -29 12 -93
-1 -111 -10 -13 -9 -19 4 -28 13 -10 10 -17 -26 -52 l-42 -42 27 -6 c16 -4 33
-10 38 -14 6 -4 17 -8 25 -8 8 -1 29 -4 45 -7 55 -11 89 -6 109 18 l19 22 -7
-25 c-18 -59 -18 -72 -5 -81 9 -6 10 -9 2 -9 -6 0 -19 -7 -28 -16 -16 -16 -68
-20 -140 -10 -51 6 -64 17 -76 57 -7 21 -20 46 -31 55 -20 19 -18 21 -22 -45
-1 -19 -7 -36 -14 -39 -26 -8 -11 -23 18 -17 23 5 30 3 30 -9 0 -9 -7 -16 -15
-16 -9 0 -18 -6 -21 -14 -3 -8 -12 -12 -21 -9 -13 5 -15 -1 -11 -30 2 -22 0
-37 -7 -37 -5 0 -4 -4 4 -9 8 -5 9 -11 3 -15 -6 -3 -10 -15 -9 -25 1 -17 3
-18 21 -5 23 16 56 19 56 4 0 -5 7 -7 15 -4 9 4 15 0 15 -10 0 -10 -8 -16 -21
-16 -15 0 -19 -5 -15 -15 7 -19 -3 -19 -25 1 -16 15 -17 14 -13 -3 4 -14 -1
-19 -16 -20 -16 -1 -20 2 -16 14 5 13 4 14 -8 4 -19 -16 -36 -6 -36 20 0 10
-5 19 -11 19 -8 0 -8 4 1 15 6 8 8 20 4 27 -5 10 -4 11 7 1 20 -19 30 -16 25
10 -23 112 -24 119 -11 124 9 3 13 20 12 48 -2 33 4 49 20 67 21 23 18 58 -5
45 -5 -4 -17 2 -27 13 -10 11 -13 20 -7 20 6 0 14 -5 17 -10 13 -21 76 13 68
37 -2 6 6 18 19 27 12 9 17 16 10 16 -7 0 -11 4 -8 9 3 5 -1 12 -10 15 -8 3
-12 2 -9 -4 3 -6 0 -10 -8 -10 -28 0 -25 27 5 53 16 15 33 26 36 26 25 -4 52
3 47 11 -3 6 -2 10 3 10 6 0 13 -8 17 -17z m1149 -13 c27 0 56 -29 56 -56 0
-13 5 -26 11 -29 6 -4 8 -14 5 -22 -3 -8 1 -21 9 -29 39 -39 -8 -109 -55 -84
-12 6 -19 14 -16 17 3 4 0 13 -7 21 -9 13 -9 14 1 8 8 -5 12 0 12 16 0 13 -8
28 -19 35 -16 10 -20 8 -32 -13 -10 -20 -10 -29 -1 -44 9 -14 8 -20 -1 -23 -7
-3 -5 -6 5 -6 9 -1 18 -11 20 -23 2 -18 9 -22 28 -20 15 2 39 -8 59 -23 19
-14 30 -25 23 -25 -7 0 -12 -10 -12 -22 1 -21 2 -22 14 -5 16 20 27 23 20 3
-3 -8 -1 -17 5 -21 6 -3 11 -16 11 -28 0 -18 -2 -19 -10 -7 -11 17 -13 5 -4
-38 4 -21 13 -31 29 -34 18 -4 21 -1 18 16 -3 14 2 10 16 -12 15 -23 19 -38
13 -50 -5 -9 -7 -34 -4 -55 4 -37 5 -38 19 -17 l15 22 19 -28 c12 -19 15 -32
9 -38 -16 -16 -11 -48 10 -66 29 -25 33 -57 9 -63 -19 -5 -18 -7 6 -31 14 -14
30 -26 35 -26 6 0 10 -4 10 -10 0 -5 10 -10 23 -9 21 0 21 1 2 9 -17 7 -18 9
-4 14 11 5 14 16 11 39 -3 18 -2 29 2 26 3 -3 7 -25 8 -49 3 -42 1 -44 -29
-52 -18 -5 -35 -13 -38 -18 -3 -5 0 -7 8 -4 8 3 18 -5 24 -19 13 -28 41 -30
67 -4 23 22 26 22 26 -5 0 -19 -2 -20 -11 -8 -9 12 -10 11 -6 -7 3 -12 2 -24
-2 -26 -3 -2 -1 -2 6 -1 6 2 17 -4 23 -12 10 -11 10 -14 -1 -14 -8 -1 -1 -8
14 -16 36 -20 43 -13 22 20 -11 16 -15 36 -11 53 3 16 3 22 0 15 -7 -15 -24
-6 -24 14 0 12 4 12 20 4 11 -6 20 -15 20 -21 0 -6 9 -22 20 -36 11 -14 17
-30 14 -35 -4 -6 0 -14 7 -19 8 -4 14 -14 14 -21 0 -7 4 -14 9 -15 16 -3 25
-27 14 -40 -7 -8 -7 -13 0 -13 16 0 45 -177 30 -186 -4 -3 -8 0 -8 7 0 7 -3 9
-6 6 -4 -4 -1 -14 6 -23 11 -12 11 -17 1 -23 -14 -9 -14 -17 0 -43 5 -10 5
-19 0 -22 -5 -3 -8 -24 -6 -46 2 -37 1 -39 -19 -28 -19 10 -20 10 -7 -5 21
-26 -1 -20 -31 8 -15 14 -32 25 -38 25 -13 0 -13 -27 0 -35 6 -4 8 -11 5 -16
-4 -5 1 -9 10 -9 9 0 13 -4 10 -10 -3 -5 -2 -10 4 -10 5 0 11 6 14 13 2 6 8 9
12 5 6 -5 -40 -58 -51 -58 -20 0 -30 15 -26 42 3 21 1 29 -7 24 -15 -9 -14
-63 1 -68 8 -3 8 -9 0 -24 -6 -10 -12 -14 -12 -7 0 6 -13 11 -31 11 -18 -1
-25 -4 -18 -9 10 -6 10 -13 1 -34 -14 -31 -16 -46 -2 -25 8 13 11 13 25 -1 14
-14 21 -11 71 35 30 28 60 62 67 76 7 14 23 27 36 28 13 2 25 12 28 22 6 22
48 39 82 33 15 -2 32 5 47 21 25 24 63 36 115 36 15 0 30 4 33 9 3 5 42 7 86
6 44 -1 82 0 85 4 4 8 115 5 210 -4 120 -12 150 -13 163 -3 9 8 16 6 26 -7 13
-18 15 -18 40 -2 22 15 26 25 26 62 0 39 3 45 21 45 11 0 17 4 14 10 -9 15 14
40 34 39 10 0 11 -2 4 -6 -7 -2 -13 -9 -13 -14 0 -12 31 0 56 23 11 10 23 16
26 13 3 -3 8 6 10 20 6 30 -6 32 -29 6 -13 -15 -20 -17 -34 -8 -10 6 -16 15
-13 19 3 4 -2 5 -10 2 -10 -4 -18 1 -23 12 -4 11 -2 19 6 22 8 3 0 16 -21 35
-18 16 -27 27 -20 23 7 -4 12 -1 12 9 0 8 -6 18 -14 21 -21 8 -16 44 6 44 18
0 19 -3 22 -52 2 -31 1 -30 38 -46 16 -6 25 -17 23 -24 -4 -9 6 -13 30 -14 39
-1 45 14 17 39 -21 19 -27 64 -11 83 9 10 9 14 0 14 -6 0 -11 7 -11 15 0 17 2
18 24 9 9 -3 16 -12 16 -19 0 -10 11 -12 42 -8 28 4 39 3 34 -5 -9 -15 13 -27
26 -14 8 8 18 6 34 -5 17 -11 24 -12 24 -3 0 7 7 10 16 6 14 -6 15 -4 4 9 -12
15 -9 16 31 11 24 -2 46 -5 48 -5 2 -1 1 -7 -2 -15 -3 -8 1 -20 9 -27 13 -10
17 -10 25 2 8 12 10 12 19 -1 5 -8 10 -26 11 -40 l0 -25 11 23 c6 12 15 22 19
22 4 0 9 -10 11 -22 2 -17 8 -22 23 -19 11 2 34 3 52 3 22 0 33 5 35 16 3 14
9 12 31 -12 17 -19 25 -36 22 -47 -4 -11 2 -26 14 -38 11 -11 23 -33 27 -48 4
-16 15 -36 25 -46 11 -10 19 -30 19 -46 0 -16 10 -37 25 -51 14 -13 25 -29 25
-36 0 -7 11 -22 25 -33 21 -16 24 -25 19 -48 -4 -15 -4 -25 0 -22 4 4 21 -5
37 -20 29 -27 29 -28 14 -64 -14 -34 -45 -52 -45 -27 0 6 -11 3 -25 -6 -14 -9
-32 -13 -45 -9 -20 6 -21 8 -4 26 16 18 16 19 -3 19 -12 0 -28 12 -38 26 -14
21 -23 25 -51 22 -25 -3 -34 0 -34 10 0 8 -12 25 -26 38 -14 13 -22 29 -19 34
3 6 -1 10 -11 10 -13 0 -14 3 -5 14 9 10 7 17 -6 27 -15 12 -16 12 -11 -2 5
-12 1 -15 -18 -11 -29 5 -52 41 -34 52 15 9 40 57 32 64 -9 10 -24 7 -17 -4
11 -18 -18 -38 -42 -29 -14 5 -23 5 -23 -1 0 -6 7 -10 15 -10 9 0 12 -6 8 -16
-3 -8 -12 -13 -19 -10 -7 3 -16 1 -19 -4 -3 -5 -12 -7 -20 -3 -9 3 -15 -1 -15
-11 0 -9 5 -16 10 -16 6 0 10 -5 10 -11 0 -7 8 -18 17 -25 10 -7 14 -16 10
-20 -4 -5 -12 -2 -16 5 -5 8 -14 10 -21 6 -9 -5 -11 -4 -6 3 4 6 -2 20 -14 32
-11 11 -21 31 -22 43 -2 25 -24 32 -32 10 -3 -7 -13 -13 -23 -13 -15 0 -16 2
-3 10 13 9 12 12 -4 25 -11 8 -28 15 -37 15 -10 0 -22 12 -27 28 -10 26 -11
27 -17 5 -4 -13 -11 -23 -15 -23 -11 0 -19 -36 -11 -49 4 -6 26 -12 49 -14 22
-2 52 -12 66 -21 14 -9 29 -16 34 -16 4 0 8 -12 9 -27 0 -22 9 -99 15 -132 1
-3 -4 -18 -10 -33 -7 -18 -17 -26 -26 -22 -10 4 -16 -4 -21 -25 -4 -17 -11
-31 -16 -31 -6 0 -17 -16 -25 -35 -8 -19 -19 -35 -25 -35 -5 0 -9 -7 -7 -15 2
-8 -12 -27 -31 -43 -37 -30 -38 -62 -3 -62 15 0 18 -6 14 -28 -3 -24 2 -31 32
-47 41 -22 44 -30 16 -38 -18 -5 -19 -8 -8 -39 6 -18 22 -41 35 -51 13 -10 23
-24 23 -32 0 -7 6 -18 13 -24 17 -14 21 -199 5 -218 -6 -7 -7 -13 -2 -13 5 0
-2 -7 -14 -16 -18 -12 -20 -19 -12 -29 7 -8 9 -19 5 -25 -4 -6 -1 -17 5 -25
10 -12 8 -19 -13 -35 -26 -21 -57 -73 -57 -96 0 -7 -6 -17 -13 -21 -7 -4 -23
-23 -36 -41 -12 -17 -29 -32 -36 -32 -8 0 -18 -6 -22 -14 -4 -7 -18 -19 -31
-25 -15 -8 -21 -18 -18 -27 3 -8 2 -12 -3 -9 -5 3 -13 0 -16 -6 -4 -5 -13 -8
-21 -5 -8 3 -14 -1 -14 -9 0 -8 -4 -15 -9 -15 -15 0 -19 23 -9 44 8 14 7 17
-4 13 -7 -2 -12 -9 -11 -16 4 -15 -40 -42 -63 -38 -31 5 -42 16 -37 38 4 14
-1 25 -16 35 -22 16 -24 45 -6 73 5 10 4 16 -3 19 -7 2 -12 13 -13 25 -1 20
-2 20 -9 -3 -7 -21 -8 -17 -9 22 -1 25 3 48 9 50 18 6 -5 25 -37 31 -33 7 -47
-8 -18 -19 8 -4 15 -10 15 -16 0 -5 -4 -6 -10 -3 -5 3 -10 0 -10 -8 0 -10 -7
-13 -19 -10 -10 3 -22 -1 -26 -8 -5 -8 -4 -10 3 -5 6 4 17 -2 23 -13 10 -15
18 -17 35 -10 35 13 20 -16 -18 -34 -21 -10 -26 -17 -17 -23 7 -4 14 -3 17 4
6 20 29 13 36 -10 5 -19 8 -21 16 -8 7 11 10 7 10 -17 0 -19 5 -33 12 -33 6 0
9 -3 5 -6 -3 -3 -2 -17 4 -31 6 -16 6 -22 -1 -18 -6 3 -10 2 -10 -3 0 -6 -13
-6 -35 0 -19 6 -32 15 -29 19 2 5 11 6 18 3 8 -3 17 0 21 5 3 6 12 8 18 4 7
-4 5 4 -4 17 -9 14 -29 32 -45 40 -16 8 -32 19 -36 25 -8 11 -10 8 -26 -20 -8
-14 -7 -22 5 -30 11 -8 7 -10 -19 -9 -45 3 -45 3 -24 19 11 9 16 20 12 31 -4
12 -10 13 -19 6 -12 -10 -47 6 -47 23 0 4 6 3 13 -3 7 -5 21 -6 32 -1 17 7 18
8 2 8 -10 1 -20 8 -24 17 -5 13 -7 13 -14 2 -6 -9 -9 -9 -9 -1 0 6 5 15 10 18
11 7 -30 45 -49 45 -19 0 -121 -49 -121 -58 0 -5 -11 -14 -25 -20 -22 -10 -25
-9 -25 7 0 20 -26 36 -35 22 -3 -5 -20 -5 -39 -1 -19 4 -38 4 -43 -1 -11 -11
-53 0 -53 13 0 6 -7 5 -15 -2 -13 -11 -21 -8 -48 18 -18 18 -38 32 -45 32 -7
0 -29 11 -50 24 -20 13 -55 30 -77 37 -22 7 -54 23 -72 36 -17 13 -36 23 -41
23 -16 0 -117 104 -137 143 -17 32 -18 40 -7 58 11 17 11 24 -1 37 -25 30 -28
51 -8 64 17 10 17 12 -3 32 -11 11 -26 20 -32 18 -8 -1 -10 13 -7 45 6 78 7
83 15 83 4 0 4 10 -1 22 -6 17 -3 31 11 51 11 15 23 25 28 22 4 -3 6 3 3 14
-3 10 0 22 6 25 8 5 8 13 1 26 -7 13 -7 21 0 25 6 4 8 11 4 16 -7 12 22 76 38
81 6 2 8 10 4 16 -4 7 -16 10 -27 7 -10 -4 -19 -3 -19 2 0 5 -9 9 -20 9 -13 0
-16 -4 -10 -10 7 -7 3 -14 -12 -23 -13 -7 -17 -12 -10 -13 7 0 4 -8 -8 -20
-12 -12 -25 -18 -29 -15 -5 2 -14 -2 -21 -10 -7 -8 -9 -15 -5 -15 4 0 2 -7 -5
-15 -6 -8 -9 -19 -6 -24 4 -6 -6 -8 -24 -6 -20 3 -33 -1 -36 -9 -5 -14 -44
-10 -44 4 0 5 7 16 16 24 20 21 5 21 -24 0 -12 -8 -20 -20 -17 -25 4 -5 2 -9
-4 -9 -5 0 -11 4 -13 10 -4 12 -64 15 -98 5 -24 -7 -24 -7 -5 8 11 9 15 17 8
17 -6 0 -18 -6 -25 -14 -8 -8 -23 -16 -34 -18 -10 -2 -18 -10 -16 -17 1 -7 -2
-10 -7 -6 -6 3 -22 3 -36 -1 -19 -5 -23 -9 -15 -19 7 -9 6 -16 -6 -26 -14 -11
-18 -10 -30 6 -8 10 -14 14 -14 8 0 -7 -9 -9 -22 -5 l-23 6 24 6 c14 3 26 10
28 17 5 13 -45 24 -53 11 -3 -4 -10 -6 -15 -2 -5 3 -6 10 -3 16 4 6 2 8 -4 4
-6 -3 -14 -2 -17 4 -5 7 -11 8 -19 1 -25 -21 -50 26 -33 59 5 8 -2 3 -15 -12
-15 -18 -28 -24 -36 -19 -8 5 -13 11 -13 15 1 3 -2 5 -6 4 -5 -2 -8 -11 -7
-21 0 -15 -2 -15 -18 -5 -11 7 -27 26 -36 42 -9 16 -24 37 -33 46 -13 14 -17
14 -29 1 -11 -11 -15 -11 -18 -2 -2 7 0 17 5 22 12 12 -10 84 -25 84 -6 0 -14
4 -19 9 -5 5 -3 6 5 2 16 -10 15 2 -2 20 -8 7 -12 23 -9 34 4 16 11 19 27 14
18 -6 19 -5 7 10 -7 9 -10 16 -5 16 4 0 0 6 -11 14 -10 7 -19 26 -20 42 -5 60
-19 94 -38 94 -7 0 -6 -4 3 -10 9 -6 10 -10 3 -10 -16 0 -46 44 -33 48 14 5
13 35 -2 51 -11 10 -10 15 3 24 11 9 14 23 11 50 -3 25 0 37 8 37 7 0 10 7 6
15 -3 8 0 15 6 15 7 0 7 4 0 13 -7 8 -7 18 -2 27 6 8 7 29 4 47 -3 17 -2 38 2
45 5 7 9 22 9 33 0 11 4 26 8 33 5 7 3 12 -5 13 -7 0 -4 4 8 9 11 4 26 25 34
49 7 23 17 41 21 41 4 0 9 17 11 38 3 33 8 39 48 59 25 12 41 22 36 23 -11 0
42 70 71 93 13 10 21 22 18 26 -2 5 4 16 15 26 11 10 20 24 20 30 0 7 9 24 20
37 10 14 17 28 13 31 -3 3 15 48 41 99 25 51 46 105 46 119 0 77 74 189 125
189 14 0 25 5 25 12 0 9 3 9 12 0 7 -7 21 -12 32 -12z m-1289 -64 c9 -48 3
-79 -17 -82 -10 -1 -20 2 -24 7 -3 5 -9 7 -13 5 -3 -3 -7 4 -7 15 0 12 4 15
10 9 19 -19 24 -10 20 35 -4 55 21 64 31 11z m290 -6 c-8 -13 -42 -18 -42 -6
0 6 11 12 24 12 12 1 21 -2 18 -6z m-55 -65 c0 -8 -2 -15 -4 -15 -2 0 -13 -3
-23 -6 -15 -5 -15 -4 -3 5 13 9 13 11 0 11 -13 0 -13 1 0 10 21 14 30 12 30
-5z m-56 -10 c3 -8 1 -15 -4 -15 -6 0 -10 7 -10 15 0 8 2 15 4 15 2 0 6 -7 10
-15z m-240 -102 c-5 -18 -12 -22 -35 -19 -17 2 -33 7 -37 11 -4 4 0 6 8 3 8
-2 23 6 34 19 21 27 38 19 30 -14z m-239 -3 c3 -5 -1 -10 -10 -10 -9 0 -13 5
-10 10 3 6 8 10 10 10 2 0 7 -4 10 -10z m155 -26 c0 -8 -4 -14 -10 -14 -5 0
-10 -6 -10 -13 0 -7 -9 -13 -19 -14 -17 -1 -18 2 -10 26 10 28 49 41 49 15z
m595 -3 c7 -12 -12 -24 -25 -16 -11 7 -4 25 10 25 5 0 11 -4 15 -9z m-395 -41
c0 -5 -2 -10 -4 -10 -3 0 -8 5 -11 10 -3 6 -1 10 4 10 6 0 11 -4 11 -10z
m-150 -24 c0 -2 -7 -6 -15 -10 -8 -3 -15 -1 -15 4 0 6 7 10 15 10 8 0 15 -2
15 -4z m-45 -16 c-3 -5 -13 -10 -21 -10 -8 0 -14 5 -14 10 0 6 9 10 21 10 11
0 17 -4 14 -10z m833 -35 c-3 -3 -9 2 -12 12 -6 14 -5 15 5 6 7 -7 10 -15 7
-18z m-868 -14 c0 -5 -4 -21 -10 -35 -7 -21 -6 -26 5 -26 25 0 17 -27 -10 -32
-32 -7 -66 17 -59 40 15 45 29 62 51 62 13 0 23 -4 23 -9z m-234 -21 c12 0 12
-4 -3 -24 -14 -19 -24 -23 -48 -19 -38 7 -39 8 -26 31 11 20 53 34 59 20 2 -5
10 -8 18 -8z m288 14 c14 -5 14 -9 4 -22 -11 -13 -10 -15 5 -9 17 6 24 -7 8
-17 -10 -7 -34 19 -37 40 -3 16 -2 16 20 8z m-220 -20 c21 -8 21 -24 0 -24 -8
0 -13 4 -10 9 4 5 0 12 -6 14 -7 3 -10 6 -6 6 3 1 13 -2 22 -5z m56 -58 c0 -9
-30 -14 -35 -6 -4 6 3 10 14 10 12 0 21 -2 21 -4z m556 -38 c4 -7 3 -8 -4 -4
-8 5 -12 0 -12 -12 0 -11 -7 -25 -15 -32 -8 -6 -26 -33 -41 -58 -15 -26 -36
-57 -46 -69 -12 -13 -17 -27 -12 -35 4 -7 4 -10 -1 -6 -4 4 -16 -3 -25 -15
-16 -19 -19 -20 -25 -5 -4 10 8 47 29 91 20 41 36 83 36 94 0 27 19 43 53 43
16 0 26 4 22 10 -3 6 3 10 14 10 11 0 23 -5 27 -12z m1248 0 c-3 -4 -9 -8 -15
-8 -5 0 -9 4 -9 8 0 5 7 9 15 9 8 0 12 -4 9 -9z m-1830 -13 c5 -14 -31 -62
-40 -52 -6 6 17 67 26 67 4 0 10 -7 14 -15z m80 -6 c-8 -14 -24 -10 -24 6 0 9
6 12 15 9 8 -4 12 -10 9 -15z m2306 -61 c0 -4 -7 -5 -15 -2 -11 5 -15 -1 -15
-17 0 -19 2 -21 10 -9 8 12 10 11 10 -7 0 -13 -6 -23 -14 -23 -8 0 -17 -8 -20
-18 -9 -27 -35 -23 -51 9 -8 15 -20 30 -27 32 -7 3 -2 4 12 2 14 -2 28 -4 33
-4 4 -1 6 -6 5 -12 -2 -6 3 -14 10 -16 12 -5 16 13 12 51 -1 10 4 23 12 27 10
7 10 9 1 9 -7 0 -13 5 -13 10 0 12 49 -20 50 -32z m1378 18 c1 -14 -5 -27 -15
-30 -21 -9 -31 3 -13 14 12 8 12 10 1 10 -11 0 -11 3 -1 15 18 21 25 19 28 -9z
m-3826 -28 c-13 -13 -26 8 -17 30 6 16 7 16 17 -1 7 -13 7 -22 0 -29z m243 32
c4 -6 1 -17 -5 -25 -10 -12 -9 -15 4 -15 9 0 16 -4 16 -10 0 -5 -6 -10 -13
-10 -8 0 -20 -19 -28 -42 -18 -58 -59 -91 -59 -49 0 11 -5 21 -11 23 -6 2 1
16 15 31 14 16 26 36 26 45 0 20 27 62 40 62 5 0 12 -5 15 -10z m1985 -10 c0
-5 -5 -10 -11 -10 -5 0 -7 5 -4 10 3 6 8 10 11 10 2 0 4 -4 4 -10z m45 -9 c16
-19 16 -20 -2 -18 -11 0 -19 8 -19 19 0 22 -1 22 21 -1z m-2143 -49 c-4 -32
-42 -64 -42 -37 0 23 29 77 39 71 4 -3 6 -18 3 -34z m2358 10 c0 -15 -2 -15
-10 -2 -13 20 -13 33 0 25 6 -3 10 -14 10 -23z m-250 14 c0 -3 -4 -8 -10 -11
-5 -3 -10 -1 -10 4 0 6 5 11 10 11 6 0 10 -2 10 -4z m-1560 -16 c0 -5 -5 -10
-11 -10 -5 0 -7 5 -4 10 3 6 8 10 11 10 2 0 4 -4 4 -10z m1330 -72 c0 -5 -10
-7 -22 -4 -13 3 -18 3 -11 0 7 -3 9 -13 6 -21 -6 -14 -7 -14 -13 3 -4 10 -5
24 -3 30 5 14 43 6 43 -8z m410 -9 c0 -16 -35 -28 -53 -18 -22 13 -22 27 1 31
23 5 52 -2 52 -13z m-1999 -46 c3 -48 -5 -79 -22 -91 -14 -9 -18 -20 -13 -34
9 -31 -18 -18 -34 16 -8 15 -19 25 -26 23 -7 -3 -13 1 -13 8 0 7 8 12 18 10
10 -2 23 3 30 11 6 8 20 14 31 14 16 0 18 5 14 30 -2 17 0 30 5 30 5 0 9 -8
10 -17z m1771 -13 c16 -12 28 -16 35 -9 6 6 10 5 10 -5 0 -8 -8 -13 -19 -11
-21 4 -76 45 -61 45 6 0 21 -9 35 -20z m118 -19 c0 -10 -8 -17 -20 -17 -13 0
-16 4 -10 10 6 6 4 16 -7 29 -17 18 -17 18 10 6 15 -7 27 -20 27 -28z m1523 9
c-3 -11 -12 -20 -19 -20 -8 0 -14 9 -14 20 0 13 7 20 19 20 14 0 18 -5 14 -20z
m-1743 -1 c0 -5 -4 -7 -10 -4 -13 8 -13 -8 1 -22 7 -7 7 -13 1 -17 -14 -8 -35
21 -28 39 6 17 36 21 36 4z m-1820 -35 c0 -2 -14 -4 -31 -4 -16 0 -28 4 -25 9
5 8 56 3 56 -5z m-120 -4 c-20 -13 -43 -13 -35 0 3 6 16 10 28 10 18 0 19 -2
7 -10z m-170 -28 c0 -15 -2 -15 -10 -2 -13 20 -13 33 0 25 6 -3 10 -14 10 -23z
m2043 21 c-7 -2 -19 -2 -25 0 -7 3 -2 5 12 5 14 0 19 -2 13 -5z m-1747 -12
c-4 -5 0 -12 6 -14 9 -4 7 -6 -3 -6 -9 -1 -22 6 -29 14 -10 13 -9 15 9 15 12
0 20 -4 17 -9z m3644 -32 c0 -5 -5 -9 -11 -9 -5 0 -7 5 -4 10 3 6 1 10 -4 10
-6 0 -11 5 -11 11 0 8 5 8 15 -1 8 -7 15 -16 15 -21z m-3347 -24 c-3 -9 -8
-14 -10 -11 -3 3 -2 9 2 15 9 16 15 13 8 -4z m3291 -29 c-3 -8 2 -16 13 -19
15 -4 16 -5 1 -6 -19 -1 -32 14 -23 29 9 15 15 12 9 -4z m-703 -9 c-1 -12 -15
-9 -19 4 -3 6 1 10 8 8 6 -3 11 -8 11 -12z m99 -24 c0 -5 -5 -15 -10 -23 -8
-12 -10 -11 -10 8 0 12 5 22 10 22 6 0 10 -3 10 -7z m50 -84 c0 -5 -4 -9 -10
-9 -5 0 -10 7 -10 16 0 8 5 12 10 9 6 -3 10 -10 10 -16z m-2920 -74 c0 -8 -2
-15 -4 -15 -2 0 -6 7 -10 15 -3 8 -1 15 4 15 6 0 10 -7 10 -15z m-360 -221 c0
-8 -5 -12 -10 -9 -6 4 -8 11 -5 16 9 14 15 11 15 -7z m14 -56 c-5 -8 0 -9 17
-5 l24 6 -25 -19 c-27 -21 -45 -26 -35 -10 3 6 -4 11 -17 11 -20 1 -21 2 -3 6
11 3 24 9 30 14 13 13 18 11 9 -3z m3717 -11 c-1 -12 -15 -9 -19 4 -3 6 1 10
8 8 6 -3 11 -8 11 -12z m-3221 -29 c0 -6 -6 -5 -15 2 -8 7 -15 14 -15 16 0 2
7 1 15 -2 8 -4 15 -11 15 -16z m-185 -38 l20 -9 -20 0 c-11 0 -27 4 -35 9 -13
9 -13 10 0 9 8 0 24 -4 35 -9z m148 -50 c-3 -12 -8 -19 -11 -16 -5 6 5 36 12
36 2 0 2 -9 -1 -20z m72 0 c-4 -7 2 -9 19 -4 23 5 37 -5 116 -85 49 -50 92
-102 96 -116 3 -14 11 -25 18 -25 6 0 12 -12 11 -27 0 -23 4 -28 23 -26 26 3
29 -9 5 -28 -11 -10 -14 -10 -9 -1 4 6 2 12 -3 12 -19 0 -12 -22 9 -27 11 -3
20 -10 19 -17 -3 -28 3 -35 28 -33 14 1 28 -4 30 -10 3 -8 -4 -13 -16 -13 -12
0 -21 -6 -21 -12 0 -22 17 -41 29 -34 11 7 15 -6 11 -33 -1 -13 1 -13 14 -2
14 12 16 10 16 -11 0 -22 4 -25 26 -20 18 3 25 1 20 -6 -9 -15 4 -43 17 -35 6
3 7 1 3 -5 -4 -7 -15 -12 -24 -12 -11 0 -18 -8 -19 -20 -2 -24 6 -26 21 -4 12
16 50 9 40 -7 -3 -6 -1 -16 5 -23 6 -7 9 -22 5 -32 -5 -15 -4 -16 5 -4 11 17
20 11 25 -17 2 -11 14 -35 25 -54 23 -38 27 -54 9 -43 -7 4 -8 3 -4 -4 4 -6
12 -9 20 -6 8 3 20 -12 32 -38 10 -24 24 -49 31 -56 7 -7 13 -21 13 -31 0 -38
31 -133 57 -173 29 -47 36 -79 19 -90 -13 -8 -8 -13 22 -22 19 -6 22 -4 23 21
0 27 1 27 11 6 6 -13 15 -23 20 -23 4 0 8 -7 8 -15 0 -8 5 -15 10 -15 6 0 5
-8 -2 -20 -11 -17 -10 -22 2 -30 13 -9 13 -12 -2 -24 -22 -17 -23 -36 -2 -36
13 0 15 -7 11 -29 -3 -15 -1 -33 5 -39 14 -14 1 -33 -17 -25 -8 3 -15 0 -15
-6 0 -7 10 -16 23 -21 12 -5 17 -9 10 -9 -8 -1 -11 -13 -8 -36 4 -28 2 -33
-11 -28 -13 5 -15 2 -10 -13 4 -14 -7 -33 -39 -69 -25 -27 -45 -52 -45 -56 0
-4 -10 -9 -21 -12 -15 -4 -20 -11 -15 -22 3 -10 -1 -18 -12 -21 -47 -16 -82
-36 -77 -45 4 -5 -2 -12 -12 -16 -10 -3 -26 -13 -35 -21 -10 -8 -18 -12 -18
-9 0 4 -12 2 -27 -4 -16 -6 -61 -12 -102 -13 -62 -2 -75 0 -84 16 -7 10 -17
18 -24 18 -7 0 -13 5 -13 10 0 7 -16 9 -39 6 -28 -3 -41 0 -45 10 -3 7 -12 11
-21 8 -8 -3 -15 -2 -15 4 0 8 -44 26 -52 21 -2 -1 -25 19 -51 45 -27 25 -53
47 -58 47 -5 1 -13 2 -18 3 -6 0 -16 7 -22 14 -7 6 -21 12 -31 12 -12 0 -18 7
-18 22 0 23 -45 97 -67 111 -7 4 -13 16 -13 26 0 10 -7 24 -15 31 -8 7 -12 16
-10 21 3 4 -2 12 -12 17 -19 11 -28 84 -25 222 3 139 6 164 23 177 10 8 17 28
17 53 0 22 4 46 9 52 4 7 6 21 5 31 -2 10 3 17 12 17 9 0 18 12 22 28 3 15 9
36 14 47 24 59 32 85 28 97 -3 7 4 32 14 56 12 25 17 50 12 60 -12 28 -13 46
-4 52 13 8 22 55 26 140 2 41 5 113 7 160 2 47 8 101 12 120 7 34 30 80 41 80
3 0 2 -5 -1 -10z m1518 -44 c4 -10 1 -13 -8 -9 -8 3 -12 9 -9 14 7 12 11 11
17 -5z m-2212 -19 c-10 -9 -11 -8 -5 6 3 10 9 15 12 12 3 -3 0 -11 -7 -18z
m416 7 c-3 -3 -12 -4 -19 -1 -8 3 -5 6 6 6 11 1 17 -2 13 -5z m43 -14 c0 -5
-2 -10 -4 -10 -3 0 -8 5 -11 10 -3 6 -1 10 4 10 6 0 11 -4 11 -10z m37 -5 c0
-8 -4 -12 -9 -9 -5 3 -6 10 -3 15 9 13 12 11 12 -6z m3533 -30 c-7 -9 -15 -13
-18 -10 -3 2 1 11 8 20 7 9 15 13 18 10 3 -2 -1 -11 -8 -20z m-3535 -54 c-3
-2 -11 1 -18 7 -8 7 -18 8 -22 4 -5 -4 -5 -1 -1 5 5 10 11 10 26 1 11 -7 17
-14 15 -17z m-105 -1 c0 -5 -2 -10 -4 -10 -3 0 -8 5 -11 10 -3 6 -1 10 4 10 6
0 11 -4 11 -10z m160 6 c0 -3 -4 -8 -10 -11 -5 -3 -10 -1 -10 4 0 6 5 11 10
11 6 0 10 -2 10 -4z m-90 -25 c0 -11 -59 -26 -67 -17 -4 3 3 6 15 6 12 0 22 5
22 10 0 6 7 10 15 10 8 0 15 -4 15 -9z m1635 -1 c8 -13 -5 -13 -25 0 -13 8
-13 10 2 10 9 0 20 -4 23 -10z m-275 -55 c-14 -17 -30 -20 -30 -6 0 5 8 12 18
14 9 3 19 5 21 6 2 0 -2 -6 -9 -14z m44 -6 c-3 -6 0 -15 7 -20 8 -5 10 -9 4
-9 -5 0 -17 5 -25 10 -13 9 -13 11 0 20 20 13 23 12 14 -1z m150 -14 c-4 -8
-12 -15 -20 -15 -17 0 -18 17 -1 23 22 9 27 7 21 -8z m-211 -21 c12 2 31 -2
42 -10 18 -14 16 -15 -30 -11 -58 5 -87 15 -79 28 3 5 14 4 26 -2 11 -6 30 -8
41 -5z m-53 -39 c0 -7 -30 -13 -34 -7 -3 4 4 9 15 9 10 1 19 0 19 -2z m-693
-101 c-3 -3 -12 -4 -19 -1 -8 3 -5 6 6 6 11 1 17 -2 13 -5z m1066 -134 c7 0 3
-7 -7 -15 -14 -11 -23 -12 -33 -4 -16 14 -6 32 14 25 8 -3 20 -6 26 -6z m-873
-146 c0 -14 -4 -23 -10 -19 -5 3 -10 15 -10 26 0 10 5 19 10 19 6 0 10 -12 10
-26z m80 -94 c0 -5 -7 -7 -15 -4 -8 4 -12 10 -9 15 6 11 24 2 24 -11z m-1060
-41 c0 -21 16 -26 23 -6 4 8 6 7 6 -3 1 -8 10 -26 21 -40 11 -14 20 -33 20
-42 0 -9 9 -19 19 -23 13 -4 17 -12 14 -25 -3 -11 0 -20 6 -20 6 0 11 -11 11
-25 0 -26 -23 -35 -35 -14 -4 6 -14 8 -22 4 -27 -10 -51 4 -46 25 6 23 23 27
23 5 0 -8 7 -15 15 -15 8 0 15 5 15 10 0 6 -4 10 -9 10 -11 0 -24 39 -21 68
l2 24 -22 -22 c-22 -22 -41 -20 -23 2 15 19 13 50 -3 37 -8 -7 -14 -7 -19 1
-4 6 -13 9 -20 8 -8 -2 -14 0 -14 5 -3 30 1 39 13 34 8 -3 16 2 19 15 7 24 27
15 27 -13z m79 -16 c-8 -9 -9 -14 -3 -10 12 7 29 -21 19 -31 -3 -3 -5 0 -5 6
0 6 -6 9 -14 6 -8 -3 -19 3 -25 14 -9 17 -8 21 7 25 32 8 35 7 21 -10z m46
-61 c11 -8 13 -37 4 -46 -9 -10 -42 32 -34 43 7 13 16 14 30 3z m2551 -162 c0
-24 -3 -25 -22 -6 -12 13 -12 15 4 19 9 3 17 5 17 6 1 0 1 -8 1 -19z m44 -24
c-16 -20 -30 -20 -30 -1 0 8 4 15 10 15 5 0 7 8 3 18 -5 16 -5 16 12 0 15 -14
16 -20 5 -32z m-2545 24 c-3 -5 -10 -10 -16 -10 -5 0 -9 5 -9 10 0 6 7 10 16
10 8 0 12 -4 9 -10z m1808 -69 c-4 -4 -11 -10 -15 -15 -5 -5 -8 3 -8 19 0 24
2 26 15 15 9 -7 12 -16 8 -19z m48 8 c-26 -21 -37 -19 -28 6 4 8 17 15 29 15
l23 -1 -24 -20z m727 -7 c4 -14 -34 -16 -42 -3 -6 10 13 21 28 17 6 -1 12 -8
14 -14z m-2658 -10 c0 -5 -7 -9 -15 -9 -8 0 -12 4 -9 9 3 4 9 8 15 8 5 0 9 -4
9 -8z m2773 -35 c-2 -4 -3 -12 -3 -17 0 -6 -8 -10 -17 -8 -11 2 -22 -6 -28
-19 -5 -13 -18 -23 -28 -23 -17 0 -17 1 -3 16 17 16 22 29 8 20 -4 -2 -12 5
-18 17 -9 21 -8 22 41 22 27 -1 49 -4 48 -8z m-1066 -130 c4 -6 -2 -8 -15 -5
-12 4 -22 2 -22 -3 0 -14 -17 -10 -23 5 -4 11 -1 13 10 9 10 -4 14 -2 10 4 -5
7 0 9 13 6 11 -3 23 -10 27 -16z m-219 -62 c-3 -3 -9 2 -12 12 -6 14 -5 15 5
6 7 -7 10 -15 7 -18z m244 13 c-9 -9 -15 -9 -24 0 -9 9 -7 12 12 12 19 0 21
-3 12 -12z m-279 -5 c-7 -2 -19 -2 -25 0 -7 3 -2 5 12 5 14 0 19 -2 13 -5z
m107 1 c0 -3 -7 -12 -15 -20 -8 -9 -15 -13 -15 -11 0 3 -2 12 -5 19 -4 9 2 14
15 15 11 1 20 -1 20 -3z m-5 -64 c6 -10 -6 -14 -39 -10 -12 1 -16 -3 -11 -10
4 -7 19 -10 35 -7 25 5 50 -7 50 -24 0 -12 -81 8 -100 26 -25 23 -15 39 18 30
23 -6 24 -5 11 11 -13 16 -12 16 8 6 12 -7 25 -17 28 -22z m-195 0 c0 -5 -4
-10 -10 -10 -5 0 -10 5 -10 10 0 6 5 10 10 10 6 0 10 -4 10 -10z m120 -60 c39
-33 33 -58 -11 -41 -13 5 -18 10 -11 10 19 1 14 22 -10 42 -11 11 -17 19 -12
19 5 0 25 -13 44 -30z m-1454 11 c-4 -5 0 -12 6 -14 8 -3 6 -6 -4 -6 -10 -1
-18 6 -18 14 0 8 5 15 11 15 5 0 8 -4 5 -9z m1604 -73 c0 -12 -14 -10 -35 6
-12 8 -16 19 -11 31 6 16 8 16 26 -5 11 -13 20 -27 20 -32z m-60 21 c0 -11 -5
-19 -12 -17 -17 6 -19 38 -2 38 8 0 14 -9 14 -21z m172 -11 c-9 -9 -12 -7 -12
12 0 19 3 21 12 12 9 -9 9 -15 0 -24z m-1731 -21 c-8 -8 -11 -8 -11 2 0 7 -5
9 -12 5 -7 -4 -8 -3 -4 5 4 6 12 9 17 6 5 -4 9 0 10 7 0 10 2 10 6 0 3 -8 0
-19 -6 -25z m1798 -43 c-8 -10 -14 -11 -24 -1 -15 14 0 28 22 20 10 -4 11 -9
2 -19z m231 -205 c0 -6 -4 -7 -10 -4 -5 3 -10 11 -10 16 0 6 5 7 10 4 6 -3 10
-11 10 -16z m-142 4 c-10 -2 -26 -2 -35 0 -10 3 -2 5 17 5 19 0 27 -2 18 -5z
m-228 -75 c0 -10 -27 -10 -34 0 -2 4 4 8 15 8 10 0 19 -4 19 -8z"/>
<path d="M2234 4163 c1 -56 2 -61 16 -47 11 11 12 17 3 22 -6 4 -14 25 -16 47
-3 24 -4 15 -3 -22z"/>
<path d="M2386 3688 c3 -4 9 -8 15 -8 5 0 9 4 9 8 0 5 -7 9 -15 9 -8 0 -12 -4
-9 -9z"/>
<path d="M2400 3650 c-8 -5 -11 -12 -7 -16 4 -4 13 -2 19 4 15 15 7 24 -12 12z"/>
<path d="M2040 3441 c0 -6 -8 -11 -18 -11 -10 0 -22 -12 -29 -30 -8 -21 -16
-28 -27 -24 -11 4 -16 0 -16 -14 0 -11 5 -22 11 -24 5 -2 11 -18 11 -36 1 -42
43 -55 81 -24 12 10 16 9 21 -4 4 -10 16 -15 33 -14 54 4 75 0 71 -12 -3 -7
-14 -18 -25 -23 -19 -10 -19 -11 -1 -40 16 -27 18 -28 18 -8 0 12 6 26 14 30
7 4 15 29 18 55 5 40 3 48 -17 58 -12 7 -28 26 -36 43 -11 25 -21 33 -46 35
-19 2 -33 9 -33 16 0 8 -7 19 -15 26 -10 9 -15 9 -15 1z m86 -118 c-11 -11
-19 6 -11 24 8 17 8 17 12 0 3 -10 2 -21 -1 -24z m-126 7 c0 -5 -2 -10 -4 -10
-3 0 -8 5 -11 10 -3 6 -1 10 4 10 6 0 11 -4 11 -10z m30 0 c0 -5 -5 -10 -11
-10 -5 0 -7 5 -4 10 3 6 8 10 11 10 2 0 4 -4 4 -10z"/>
<path d="M2335 3410 c-3 -5 1 -10 10 -10 9 0 13 5 10 10 -3 6 -8 10 -10 10 -2
0 -7 -4 -10 -10z"/>
<path d="M2492 3382 c4 -24 88 -31 88 -8 0 19 -40 21 -59 4 -9 -8 -11 -8 -8
-2 4 7 0 15 -9 18 -11 4 -14 1 -12 -12z"/>
<path d="M2613 3328 c-6 -7 -14 -24 -17 -38 -6 -19 -5 -21 3 -10 8 12 11 8 11
-17 0 -34 14 -44 24 -18 3 8 1 15 -4 15 -6 0 -10 7 -10 16 0 12 7 15 25 12 30
-6 44 9 18 19 -10 4 -23 13 -29 21 -8 11 -12 12 -21 0z"/>
<path d="M3900 3321 c0 -5 5 -13 10 -16 6 -3 10 -2 10 4 0 5 -4 13 -10 16 -5
3 -10 2 -10 -4z"/>
<path d="M4080 3316 c0 -2 7 -9 15 -16 9 -7 15 -8 15 -2 0 5 -7 12 -15 16 -8
3 -15 4 -15 2z"/>
<path d="M4060 3279 c0 -5 5 -7 10 -4 6 3 10 8 10 11 0 2 -4 4 -10 4 -5 0 -10
-5 -10 -11z"/>
<path d="M1957 3263 c-3 -3 -3 -11 0 -19 3 -8 0 -15 -6 -15 -40 -5 -62 -20
-56 -40 5 -14 -2 -20 -32 -28 -21 -6 -45 -11 -52 -11 -10 0 -12 -3 -5 -10 11
-11 130 -18 140 -8 3 4 12 4 20 1 8 -3 14 -2 13 3 -2 16 13 54 20 50 4 -3 8 5
8 16 1 12 7 24 13 28 5 3 -5 14 -24 22 -19 9 -36 14 -39 11z"/>
<path d="M3902 3240 c0 -14 2 -19 5 -12 2 6 2 18 0 25 -3 6 -5 1 -5 -13z"/>
<path d="M2645 3229 c-4 -6 -5 -12 -2 -15 2 -3 7 2 10 11 7 17 1 20 -8 4z"/>
<path d="M3930 3202 c0 -11 8 -22 19 -25 14 -3 18 1 17 17 -1 27 -36 35 -36 8z"/>
<path d="M2384 3167 c-11 -6 -27 -24 -34 -41 -7 -17 -15 -35 -18 -41 -2 -5 3
-1 11 10 15 20 16 19 22 -7 7 -29 35 -47 35 -23 0 8 14 17 35 21 29 5 34 10
33 31 -2 14 -8 28 -15 30 -7 3 -13 11 -13 19 0 16 -25 16 -56 1z"/>
<path d="M2016 3120 c-10 -10 -23 -17 -30 -16 -6 2 -8 1 -3 -1 4 -3 5 -9 2
-13 -3 -5 4 -14 15 -20 11 -6 20 -17 20 -25 0 -15 0 -15 -100 -1 -14 2 -35 7
-47 11 -14 5 -23 3 -23 -3 0 -6 19 -17 43 -23 51 -15 66 -26 44 -35 -15 -5
-15 -8 0 -30 17 -27 8 -31 -24 -9 -13 9 -40 15 -67 13 -43 -1 -46 -3 -45 -27
1 -15 3 -19 6 -9 6 25 29 29 48 8 9 -10 23 -16 31 -13 17 6 18 -9 2 -25 -9 -9
-8 -12 5 -12 9 0 17 5 17 12 0 6 3 8 7 5 3 -4 15 1 25 10 11 10 29 18 41 18
16 0 23 7 25 25 5 32 20 50 43 50 10 0 21 10 25 23 4 12 11 25 17 28 6 5 5 18
-4 37 -7 17 -16 29 -20 26 -4 -2 -10 0 -14 6 -9 14 -17 12 -39 -10z"/>
<path d="M1747 3113 c-3 -4 1 -19 8 -33 12 -23 14 -23 21 -7 7 19 -19 56 -29
40z"/>
<path d="M3995 3080 c3 -5 16 -10 28 -10 18 0 19 2 7 10 -20 13 -43 13 -35 0z"/>
<path d="M2286 3055 c-4 -14 -11 -25 -16 -25 -6 0 -10 -6 -10 -14 0 -8 -6 -17
-12 -20 -10 -5 -10 -7 -1 -12 8 -4 9 -13 3 -30 -9 -23 -8 -24 13 -13 12 6 31
19 42 29 11 10 32 20 47 24 l26 6 -40 40 c-23 22 -42 40 -44 40 -1 0 -5 -11
-8 -25z m-9 -77 c-3 -8 -6 -5 -6 6 -1 11 2 17 5 13 3 -3 4 -12 1 -19z"/>
<path d="M4045 3050 c3 -5 8 -10 11 -10 2 0 4 5 4 10 0 6 -5 10 -11 10 -5 0
-7 -4 -4 -10z"/>
<path d="M2712 3005 c-34 -18 -40 -28 -9 -16 15 6 30 11 33 10 10 -1 16 9 7
13 -4 3 -18 -1 -31 -7z"/>
<path d="M3840 2979 c0 -5 5 -7 10 -4 6 3 10 8 10 11 0 2 -4 4 -10 4 -5 0 -10
-5 -10 -11z"/>
<path d="M2698 2973 c-21 -5 -23 -14 -6 -31 18 -18 23 -15 24 13 1 14 1 24 0
24 0 -1 -9 -3 -18 -6z"/>
<path d="M2734 2960 c0 -13 4 -16 10 -10 7 7 7 13 0 20 -6 6 -10 3 -10 -10z"/>
<path d="M1668 2909 c-10 -11 -25 -16 -35 -13 -15 5 -15 4 -3 -4 20 -13 70 -3
70 14 0 21 -14 22 -32 3z"/>
<path d="M2030 2832 c-27 -13 -35 -22 -32 -38 3 -22 3 -22 40 -4 34 17 37 17
41 2 2 -9 11 -22 21 -29 12 -8 15 -21 12 -42 -4 -28 -2 -31 24 -31 23 0 26 -2
14 -11 -11 -8 -11 -10 -1 -7 7 2 15 18 16 36 2 26 -1 32 -16 32 -17 0 -18 5
-13 40 7 44 -12 83 -27 58 -7 -10 -11 -10 -21 0 -15 15 -14 15 -58 -6z"/>
<path d="M2190 2802 c-22 -8 -8 -22 20 -22 17 0 30 -4 30 -10 0 -5 11 -9 25
-8 14 1 25 8 25 16 0 7 4 10 10 7 5 -3 7 0 4 8 -4 12 -84 19 -114 9z"/>
<path d="M3120 2774 c-9 -11 -10 -15 -2 -10 6 4 13 2 13 -3 1 -6 2 -17 3 -23
2 -14 31 -12 56 3 11 6 9 8 -11 9 -17 0 -29 8 -35 21 -9 20 -10 20 -24 3z"/>
<path d="M1678 2723 c6 -2 9 -10 6 -15 -4 -6 -2 -8 4 -4 5 3 20 -6 31 -21 11
-16 21 -23 21 -17 0 16 -47 64 -62 63 -10 0 -10 -2 0 -6z"/>
<path d="M1790 2614 c0 -8 4 -13 9 -9 5 3 17 -5 25 -17 18 -25 22 -17 6 11
-13 25 -40 35 -40 15z"/>
<path d="M3430 2621 c0 -11 26 -22 34 -14 3 3 3 10 0 14 -7 12 -34 11 -34 0z"/>
<path d="M3105 2580 c-16 -4 -47 -14 -67 -23 -21 -9 -38 -14 -38 -11 0 3 -7
-2 -16 -11 -15 -15 -15 -18 7 -41 21 -22 31 -25 89 -23 68 1 124 12 150 29 13
8 11 14 -13 35 -15 14 -32 23 -39 19 -7 -4 -8 -3 -4 4 5 8 -1 12 -14 12 -12 0
-18 5 -15 10 7 11 3 11 -40 0z"/>
<path d="M3445 2540 c3 -5 1 -19 -5 -31 -7 -12 -9 -36 -5 -55 5 -29 10 -34 35
-34 37 0 61 10 54 21 -3 5 -10 7 -15 4 -5 -4 -6 6 -3 22 9 44 -11 83 -41 83
-15 0 -23 -4 -20 -10z"/>
<path d="M3250 2295 c-9 -11 -10 -19 -3 -26 7 -7 14 -5 23 6 9 11 10 19 3 26
-7 7 -14 5 -23 -6z"/>
<path d="M3030 2232 c0 -26 11 -34 26 -21 19 16 47 3 40 -18 -3 -10 -2 -22 2
-28 9 -13 35 -18 27 -5 -4 7 2 7 19 0 21 -8 31 -5 53 14 32 28 25 45 -12 28
-15 -7 -26 -8 -30 -1 -4 5 -10 7 -15 4 -5 -3 -14 3 -19 14 -7 13 -19 18 -36
16 -14 -1 -28 2 -31 6 -9 16 -24 10 -24 -9z"/>
<path d="M3185 2240 c3 -5 8 -10 11 -10 2 0 4 5 4 10 0 6 -5 10 -11 10 -5 0
-7 -4 -4 -10z"/>
<path d="M2556 2085 c-4 -12 -1 -16 14 -13 24 3 28 22 7 26 -8 2 -17 -4 -21
-13z"/>
<path d="M2580 2035 c0 -5 5 -17 10 -25 5 -8 10 -10 10 -5 0 6 -5 17 -10 25
-5 8 -10 11 -10 5z"/>
<path d="M3695 1891 c-3 -5 -2 -12 3 -15 5 -3 9 1 9 9 0 17 -3 19 -12 6z"/>
<path d="M3762 1875 c12 -26 21 -29 53 -15 15 7 16 9 4 9 -9 1 -22 8 -29 16
-7 8 -19 15 -26 15 -11 0 -11 -5 -2 -25z"/>
<path d="M3603 1870 c-39 -23 -43 -39 -8 -32 16 3 25 0 25 -8 0 -7 7 -10 15
-6 8 3 15 1 15 -4 0 -6 11 -10 24 -10 26 0 42 25 24 36 -7 4 -8 3 -4 -4 5 -8
-2 -12 -18 -12 -14 0 -26 5 -26 11 0 5 -4 8 -9 4 -5 -3 -12 -1 -16 5 -3 5 -2
10 3 10 5 0 9 7 9 15 0 8 -1 15 -1 15 -1 0 -16 -9 -33 -20z"/>
<path d="M3726 1829 c1 -13 3 -26 3 -28 1 -2 7 2 14 8 8 6 18 7 22 3 5 -4 5
-1 1 6 -5 7 -10 11 -14 8 -3 -3 -10 2 -17 11 -10 14 -12 13 -9 -8z"/>
<path d="M3526 1797 c3 -10 9 -15 12 -12 3 3 0 11 -7 18 -10 9 -11 8 -5 -6z"/>
<path d="M3650 1790 c0 -5 0 -13 1 -16 0 -4 -4 -10 -10 -13 -6 -4 -2 -12 11
-20 19 -12 20 -11 13 6 -4 10 -7 26 -7 36 0 9 -1 17 -4 17 -2 0 -4 -4 -4 -10z"/>
<path d="M3701 1784 c0 -11 3 -14 6 -6 3 7 2 16 -1 19 -3 4 -6 -2 -5 -13z"/>
<path d="M3420 1781 c0 -5 5 -13 10 -16 6 -3 10 -2 10 4 0 5 -4 13 -10 16 -5
3 -10 2 -10 -4z"/>
<path d="M3747 1773 c5 -12 2 -15 -8 -11 -12 5 -15 -3 -16 -34 0 -22 -7 -44
-14 -49 -20 -12 -4 -22 38 -23 33 -1 38 -4 36 -23 -2 -13 2 -23 7 -23 6 0 10
6 10 14 0 23 30 28 38 6 7 -20 8 -20 25 0 16 19 16 20 -3 20 -10 0 -22 5 -26
12 -5 7 0 9 14 6 14 -4 22 0 25 11 5 21 -27 25 -44 5 -17 -20 -36 -17 -42 7
-3 12 -10 18 -16 15 -5 -4 -13 -1 -17 5 -4 8 -3 9 4 5 7 -4 12 -1 12 7 0 8 8
21 17 28 11 10 14 10 9 2 -4 -8 2 -17 18 -25 34 -15 44 -4 20 24 -10 12 -13
18 -6 14 7 -4 12 -1 12 8 0 9 -9 16 -21 16 -13 0 -18 -4 -13 -12 5 -8 2 -9
-12 -4 -39 16 -53 15 -47 -1z"/>
<path d="M3460 1735 c-7 -8 -10 -18 -6 -22 3 -3 6 -1 6 5 0 6 7 9 15 6 8 -4
15 -16 15 -27 0 -15 3 -18 11 -10 15 15 7 57 -12 61 -9 1 -22 -4 -29 -13z"/>
<path d="M3790 1720 c0 -5 5 -10 11 -10 5 0 7 5 4 10 -3 6 -8 10 -11 10 -2 0
-4 -4 -4 -10z"/>
<path d="M3646 1655 c-3 -9 0 -15 9 -15 16 0 20 16 6 24 -5 3 -11 -1 -15 -9z"/>
<path d="M3722 1644 c4 -3 -4 -16 -16 -28 -23 -21 -24 -46 -3 -46 21 0 35 15
42 41 5 20 2 28 -11 33 -10 4 -15 4 -12 0z"/>
<path d="M1456 2267 c3 -10 9 -15 12 -12 3 3 0 11 -7 18 -10 9 -11 8 -5 -6z"/>
<path d="M1523 2231 c0 -11 5 -18 9 -15 4 3 5 11 1 19 -7 21 -12 19 -10 -4z"/>
<path d="M1400 2210 c-9 -6 -10 -10 -3 -10 6 0 15 5 18 10 8 12 4 12 -15 0z"/>
<path d="M1423 1905 c-12 -14 -19 -33 -16 -43 11 -43 -36 -57 -94 -30 -17 8
-27 8 -40 -3 -16 -13 -17 -12 -5 3 11 14 10 19 -9 32 -28 19 -35 14 -41 -25
-4 -26 0 -33 20 -42 20 -9 26 -9 30 1 4 12 22 7 22 -7 0 -12 -47 -31 -76 -31
-14 0 -23 -4 -19 -9 3 -5 -3 -12 -12 -14 -11 -3 -8 -5 10 -6 19 -1 27 -6 27
-19 0 -15 19 -28 74 -46 13 -5 17 -12 12 -29 -7 -31 27 -69 57 -63 16 3 23 -1
24 -13 3 -32 -85 -52 -154 -37 -20 5 -33 4 -33 -2 0 -6 3 -12 8 -14 4 -2 20
-18 37 -36 l29 -33 -29 -23 c-17 -13 -33 -22 -37 -20 -9 6 3 44 14 44 5 0 7 4
4 9 -3 4 -17 7 -32 5 -28 -3 -46 -14 -23 -14 8 0 2 -8 -14 -18 -15 -10 -24
-21 -21 -25 3 -3 3 -11 -2 -18 -4 -7 -9 -35 -10 -63 -3 -51 15 -80 43 -69 7 3
20 0 28 -7 13 -11 14 -10 9 3 -6 17 54 87 75 87 7 0 9 -4 6 -10 -7 -11 18 -38
58 -63 24 -16 26 -20 16 -40 -7 -12 -17 -25 -22 -29 -6 -3 11 -9 36 -13 26 -4
44 -11 41 -16 -3 -5 2 -9 10 -9 9 0 16 -7 16 -15 0 -8 3 -16 8 -17 12 -2 55
-8 87 -12 17 -2 33 -4 37 -5 4 0 17 -11 29 -23 12 -13 19 -16 15 -8 -4 8 0 6
8 -4 14 -18 21 -15 17 7 -1 4 8 26 19 49 24 50 25 57 5 72 -14 10 -14 13 0 31
15 17 16 18 11 2 -3 -11 -2 -16 4 -12 6 3 10 13 10 21 0 8 7 29 16 45 12 24
13 34 3 45 -6 7 -15 12 -18 9 -4 -2 -8 11 -8 30 0 31 4 35 26 36 14 1 29 1 34
0 28 -4 -15 84 -62 127 -20 18 -30 31 -23 27 6 -3 12 0 12 7 0 7 3 22 6 34 3
12 0 27 -8 35 -7 8 -24 31 -38 51 -14 21 -28 38 -31 38 -4 0 -6 12 -6 26 0 17
6 28 17 31 24 6 31 36 15 67 -7 13 -11 27 -7 30 3 3 0 6 -7 6 -7 0 -9 5 -5 12
4 7 3 8 -5 4 -7 -4 -10 -13 -8 -19 2 -7 -3 -18 -12 -25 -9 -8 -11 -11 -5 -8 6
3 11 -1 11 -8 0 -7 -6 -13 -14 -13 -13 0 -17 10 -14 35 1 7 -3 11 -10 10 -6
-2 -15 9 -19 23 -7 23 -5 26 13 21 14 -3 18 -1 13 6 -4 7 -30 12 -59 12 -43 0
-56 -5 -74 -25z m11 -139 c3 -14 3 -32 0 -40 -4 -9 -1 -16 6 -16 7 0 10 -7 6
-15 -3 -8 -1 -15 5 -15 6 0 7 -4 4 -10 -3 -5 -1 -10 4 -10 15 0 14 -30 -1 -31
-56 -6 -68 -4 -68 11 0 10 -8 24 -18 33 -16 15 -20 15 -40 2 -19 -14 -22 -14
-32 5 -9 17 -8 22 7 27 10 4 35 24 55 45 44 44 63 48 72 14z m110 -63 c-7 -39
-11 -49 -18 -42 -7 8 7 79 16 79 5 0 6 -16 2 -37z m21 -22 c-3 -6 3 -15 14
-20 27 -15 31 -14 31 7 1 15 2 15 15 -2 13 -17 13 -22 -2 -38 -21 -23 -32 -23
-59 3 -21 20 -23 59 -2 59 5 0 7 -4 3 -9z m-100 -141 c-9 -15 -22 -12 -29 7
-9 21 16 37 27 17 4 -8 5 -19 2 -24z m115 20 c11 -6 17 -17 14 -25 -4 -8 -2
-15 4 -15 6 0 13 -13 17 -30 6 -29 25 -42 25 -18 0 19 11 2 15 -25 3 -17 0
-27 -11 -31 -21 -8 -35 2 -33 22 3 31 -1 43 -11 37 -16 -10 -50 5 -50 22 0 9
-7 24 -16 34 -28 31 4 51 46 29z m-50 -85 c7 -8 16 -13 20 -10 10 6 6 -25 -9
-60 -8 -19 -9 -31 -2 -33 13 -4 2 -32 -13 -32 -6 0 -16 -10 -21 -22 -6 -13
-24 -26 -44 -31 -18 -4 -45 -16 -59 -25 -24 -16 -25 -16 -14 4 12 22 12 65 1
58 -7 -4 -19 19 -19 37 0 5 11 4 25 -1 14 -5 25 -7 25 -5 0 15 -3 20 -11 18
-4 -2 -5 5 -2 14 5 13 1 15 -20 11 -15 -3 -28 0 -30 6 -3 8 -11 7 -26 -2 -12
-7 -32 -10 -47 -6 l-25 7 27 28 c24 25 25 27 5 22 -12 -3 -21 -1 -21 6 0 6 15
11 34 11 30 0 34 -3 31 -21 -4 -21 -4 -21 17 -3 12 11 18 14 15 7 -13 -21 18
-20 48 3 26 19 49 27 91 33 6 0 17 -6 24 -14z m135 -85 c-3 -4 0 -11 5 -13 6
-3 5 -4 -2 -3 -7 1 -15 11 -16 21 -3 11 0 15 7 10 6 -3 9 -10 6 -15z m-100
-122 c-1 -32 -1 -32 25 -18 26 14 36 -16 10 -32 -11 -7 -20 -24 -20 -38 0 -41
-13 -53 -50 -45 -27 6 -31 11 -27 31 4 25 -11 32 -29 14 -7 -7 -19 -7 -35 -1
-13 5 -18 10 -11 10 7 1 11 5 8 10 -14 22 33 36 60 18 20 -12 37 19 24 43 -14
26 -4 42 23 38 17 -2 22 -10 22 -30z"/>
<path d="M1475 1370 c-4 -6 -11 -7 -17 -4 -7 4 -8 2 -4 -5 6 -9 11 -9 22 0 14
11 18 19 10 19 -3 0 -8 -5 -11 -10z"/>
<path d="M1103 1685 c0 -8 4 -12 9 -9 5 3 6 10 3 15 -9 13 -12 11 -12 -6z"/>
<path d="M1226 1648 c-10 -38 -7 -58 9 -58 15 0 19 10 16 43 -1 9 3 17 9 17 6
0 8 5 5 10 -11 18 -32 11 -39 -12z"/>
<path d="M1160 1651 c0 -5 5 -13 10 -16 6 -3 10 -2 10 4 0 5 -4 13 -10 16 -5
3 -10 2 -10 -4z"/>
<path d="M1107 1590 c-11 -13 -12 -20 -5 -20 7 0 -7 -20 -31 -44 -38 -39 -41
-44 -22 -49 20 -5 51 19 51 40 0 6 4 13 8 15 8 2 25 78 19 78 -2 0 -10 -9 -20
-20z"/>
<path d="M1886 1551 c-4 -6 -13 -8 -19 -4 -9 5 -9 3 0 -8 7 -8 8 -20 4 -28 -5
-7 -6 -22 -4 -32 4 -16 7 -16 19 -4 8 7 11 21 8 30 -4 9 -2 20 4 24 6 4 7 12
3 20 -6 9 -11 10 -15 2z"/>
<path d="M1137 1490 c-6 -25 4 -32 21 -14 7 8 9 14 5 14 -4 0 -1 5 7 10 12 8
11 10 -6 10 -13 0 -24 -8 -27 -20z"/>
<path d="M1856 1442 c7 -14 22 -27 33 -29 28 -4 18 18 -18 38 l-29 17 14 -26z"/>
<path d="M1895 1380 c3 -5 8 -10 11 -10 2 0 4 5 4 10 0 6 -5 10 -11 10 -5 0
-7 -4 -4 -10z"/>
<path d="M1250 1210 c6 -11 15 -20 20 -20 17 0 11 15 -11 28 -19 12 -19 11 -9
-8z"/>
<path d="M1295 1190 c3 -5 11 -10 16 -10 6 0 7 5 4 10 -3 6 -11 10 -16 10 -6
0 -7 -4 -4 -10z"/>
<path d="M3116 5675 c-4 -10 1 -15 16 -15 17 0 18 2 8 15 -7 8 -14 15 -15 15
-2 0 -5 -7 -9 -15z"/>
<path d="M2065 5459 c-4 -6 -5 -12 -2 -15 2 -3 7 2 10 11 7 17 1 20 -8 4z"/>
<path d="M1929 5411 c11 -7 11 -9 0 -14 -8 -3 1 -6 20 -6 33 -1 34 0 15 14
-10 8 -26 14 -34 15 -12 0 -13 -2 -1 -9z"/>
<path d="M2870 5400 c-9 -6 -10 -10 -3 -10 6 0 15 5 18 10 8 12 4 12 -15 0z"/>
<path d="M1981 5353 c-10 -11 -11 -17 -2 -22 15 -10 11 -32 -9 -48 -9 -7 -10
-12 -4 -13 7 0 14 -9 17 -21 9 -34 51 -22 55 16 5 40 22 58 22 22 0 -32 -1
-32 55 -6 l45 21 -24 19 c-32 25 -38 24 -30 -7 5 -20 3 -25 -7 -22 -8 3 -15
15 -17 27 -2 14 -9 21 -17 17 -8 -3 -17 0 -21 6 -4 6 -12 1 -20 -13 -13 -24
-18 -20 -26 23 -3 14 -5 14 -17 1z"/>
<path d="M2653 5343 c9 -2 17 -8 17 -13 0 -5 -8 -7 -17 -4 -16 5 -16 4 0 -6
14 -9 22 -9 30 -1 13 13 -7 31 -33 30 -11 -1 -10 -3 3 -6z"/>
<path d="M2575 5331 c-3 -6 3 -9 14 -8 11 0 17 5 15 9 -7 11 -22 10 -29 -1z"/>
<path d="M3203 5324 c0 -8 3 -14 6 -14 8 0 37 19 31 21 -3 0 -12 2 -21 4 -9 1
-16 -4 -16 -11z"/>
<path d="M1905 5304 c-16 -13 -25 -24 -19 -24 13 0 59 38 53 44 -2 2 -17 -7
-34 -20z"/>
<path d="M2170 5310 c0 -5 5 -10 10 -10 6 0 10 5 10 10 0 6 -4 10 -10 10 -5 0
-10 -4 -10 -10z"/>
<path d="M1805 5300 c3 -5 8 -10 11 -10 2 0 4 5 4 10 0 6 -5 10 -11 10 -5 0
-7 -4 -4 -10z"/>
<path d="M2230 5300 c-9 -6 -10 -10 -3 -10 6 0 15 5 18 10 8 12 4 12 -15 0z"/>
<path d="M2475 5290 c19 -7 19 -8 2 -15 -16 -7 -16 -9 -2 -19 8 -6 19 -24 23
-41 8 -28 15 -31 62 -26 6 1 10 8 10 17 0 10 -6 14 -14 11 -10 -4 -13 -1 -10
7 3 7 -2 16 -11 20 -10 4 -14 2 -9 -5 4 -7 1 -10 -7 -7 -8 3 -14 13 -14 24 0
27 -13 44 -33 43 -14 0 -13 -2 3 -9z"/>
<path d="M2595 5270 c-3 -5 -1 -10 4 -10 6 0 11 5 11 10 0 6 -2 10 -4 10 -3 0
-8 -4 -11 -10z"/>
<path d="M1913 5256 c-4 -7 -18 -18 -30 -25 -13 -6 -23 -19 -23 -27 0 -8 -4
-12 -10 -9 -17 10 -11 -3 12 -30 21 -24 39 -33 37 -17 -3 20 2 32 16 32 18 0
19 12 3 28 -10 10 -8 14 10 18 13 4 22 14 22 25 0 22 -25 25 -37 5z m-23 -56
c0 -5 -2 -10 -4 -10 -3 0 -8 5 -11 10 -3 6 -1 10 4 10 6 0 11 -4 11 -10z"/>
<path d="M3399 5268 c0 -2 -2 -10 -4 -18 -2 -8 -6 -22 -9 -30 -4 -10 7 -28 31
-50 79 -72 77 -71 99 -56 17 13 17 14 -9 9 -16 -3 -27 -1 -27 6 0 5 7 8 15 5
11 -5 13 -2 9 10 -4 10 -13 15 -20 12 -8 -3 -14 1 -14 9 0 8 4 15 9 15 12 0 2
38 -12 47 -6 4 -8 -3 -4 -19 5 -19 2 -28 -10 -32 -24 -10 -37 14 -34 61 1 11
-3 24 -8 28 -6 3 -11 5 -12 3z"/>
<path d="M1814 5229 c-3 -6 -1 -16 4 -21 8 -8 11 -5 9 11 -1 24 -3 25 -13 10z"/>
<path d="M3161 5144 c0 -11 3 -14 6 -6 3 7 2 16 -1 19 -3 4 -6 -2 -5 -13z"/>
<path d="M3407 5149 c7 -7 15 -10 18 -7 3 3 -2 9 -12 12 -14 6 -15 5 -6 -5z"/>
<path d="M3275 5130 c3 -5 8 -10 11 -10 2 0 4 5 4 10 0 6 -5 10 -11 10 -5 0
-7 -4 -4 -10z"/>
<path d="M1655 5090 c2 -11 0 -22 -6 -25 -5 -4 -9 -1 -9 6 0 10 -3 10 -12 1
-10 -10 -10 -15 2 -22 8 -6 21 -8 28 -5 7 3 10 0 7 -5 -9 -15 8 -12 33 6 23
16 30 39 10 31 -7 -2 -12 -9 -11 -15 2 -6 -4 -9 -12 -6 -18 7 -19 20 -4 30 8
4 7 9 -2 15 -22 14 -28 11 -24 -11z"/>
<path d="M1466 5084 c-9 -24 -2 -26 12 -4 7 11 8 20 3 20 -5 0 -12 -7 -15 -16z"/>
<path d="M3400 5092 c0 -5 7 -9 15 -9 8 0 12 4 9 9 -3 4 -9 8 -15 8 -5 0 -9
-4 -9 -8z"/>
<path d="M3504 5082 c-9 -14 -9 -22 1 -35 15 -21 29 -22 21 -1 -3 8 -2 12 4 9
6 -3 10 -2 10 4 0 5 -5 13 -10 16 -6 4 -8 11 -5 16 4 5 2 9 -2 9 -5 0 -13 -8
-19 -18z"/>
<path d="M1505 5057 c4 -16 -2 -32 -19 -52 -14 -17 -26 -33 -26 -37 0 -4 -9
-10 -20 -13 -13 -4 -20 -15 -20 -32 0 -28 22 -27 26 2 1 10 7 21 12 24 4 3 11
14 15 23 4 12 12 15 23 11 13 -5 16 -3 11 10 -4 11 1 21 15 28 15 8 17 13 8
19 -6 4 -11 10 -11 14 3 18 0 26 -9 26 -6 0 -8 -10 -5 -23z"/>
<path d="M616 5011 c-3 -5 -15 -7 -26 -4 -16 4 -19 2 -14 -11 7 -19 12 -19 43
-2 14 8 19 16 13 20 -6 3 -13 2 -16 -3z"/>
<path d="M1385 5000 c3 -5 11 -10 16 -10 6 0 7 5 4 10 -3 6 -11 10 -16 10 -6
0 -7 -4 -4 -10z"/>
<path d="M1148 4970 c-21 -23 -5 -38 17 -16 16 16 20 36 7 36 -4 0 -15 -9 -24
-20z"/>
<path d="M810 4970 c0 -6 12 -10 27 -10 29 0 24 12 -7 17 -11 2 -20 -2 -20 -7z"/>
<path d="M669 4944 c-17 -21 14 -35 39 -18 12 8 22 18 22 22 0 11 -51 8 -61
-4z"/>
<path d="M893 4949 c-13 -4 -23 -14 -23 -21 0 -10 -2 -10 -8 -1 -6 9 -17 4
-42 -18 -18 -17 -44 -32 -57 -33 -14 -2 -28 -9 -33 -15 -5 -9 -9 -5 -14 13 -3
14 -11 26 -16 26 -13 0 -13 -47 0 -55 17 -11 11 -33 -11 -40 -15 -5 -25 -2
-31 9 -5 9 -15 13 -21 10 -9 -5 -9 -4 0 6 10 11 15 11 27 1 8 -7 20 -10 26 -6
15 9 2 25 -21 25 -14 0 -18 4 -13 13 6 8 3 8 -9 -1 -9 -8 -20 -11 -24 -9 -5 3
-17 -1 -28 -9 -18 -14 -18 -14 3 -14 12 0 22 -4 22 -10 0 -5 -6 -7 -14 -4 -7
3 -16 -2 -20 -11 -5 -14 -8 -14 -33 2 -15 10 -24 12 -20 6 5 -8 3 -13 -7 -13
-11 0 -16 -9 -16 -27 0 -38 -14 -57 -35 -50 -9 4 -13 11 -10 17 3 6 0 7 -9 4
-9 -3 -14 -15 -13 -27 1 -16 -6 -24 -33 -33 -23 -8 -36 -19 -38 -33 -2 -11 1
-21 7 -21 6 0 10 -10 8 -21 -1 -12 3 -24 9 -26 7 -2 12 7 12 21 0 13 10 39 22
56 27 38 40 26 38 -32 -1 -26 -6 -38 -20 -41 -10 -3 -18 -14 -18 -25 0 -11 -6
-25 -14 -32 -8 -6 -13 -17 -10 -25 6 -16 -12 -29 -21 -15 -3 5 -15 10 -26 10
-10 0 -19 5 -19 11 0 6 9 9 19 6 12 -3 22 1 25 10 11 28 6 33 -19 17 -13 -8
-29 -13 -34 -10 -12 8 -18 -1 -26 -45 -6 -33 -5 -37 19 -41 17 -4 26 -1 26 8
0 8 10 12 25 10 25 -3 48 -16 27 -16 -6 0 -17 -12 -24 -27 -10 -22 -21 -29
-51 -31 -20 -2 -37 -7 -37 -13 0 -5 -12 -9 -27 -9 l-28 0 25 20 25 20 -43 -2
c-32 -1 -41 -5 -37 -16 3 -8 8 -24 11 -37 7 -30 44 -30 80 1 35 31 48 26 52
-17 3 -32 3 -33 -15 -16 -24 21 -44 22 -37 2 4 -9 0 -15 -10 -15 -9 0 -16 -4
-16 -9 0 -5 9 -7 21 -4 30 8 41 -15 17 -39 -14 -14 -27 -18 -44 -14 -17 5 -23
2 -22 -6 2 -8 -5 -12 -19 -10 -13 2 -23 -3 -25 -13 -2 -13 -5 -12 -16 5 -12
19 -11 22 8 27 l21 6 -22 15 c-16 11 -18 16 -8 23 10 6 11 11 2 20 -8 8 -13 5
-18 -11 -5 -15 -2 -25 6 -31 11 -6 10 -9 -3 -14 -16 -6 -16 -10 2 -46 12 -22
28 -39 38 -40 12 0 9 -3 -8 -10 -13 -6 -20 -13 -15 -17 12 -8 15 -53 3 -46 -4
3 -8 12 -8 20 0 8 -5 12 -10 9 -6 -4 -7 -11 -4 -17 5 -7 1 -9 -9 -5 -17 6 -19
2 -19 -28 0 -33 3 -35 27 -19 23 15 25 15 25 -1 0 -9 9 -28 20 -42 l20 -25 10
26 c5 14 13 26 17 27 5 0 18 2 31 3 13 2 34 15 46 29 13 15 32 27 42 27 11 0
47 26 80 58 53 49 64 55 73 42 9 -11 13 -12 17 -2 3 6 12 12 19 12 8 0 17 9
20 20 3 11 10 20 15 20 12 0 5 91 -10 123 -11 22 -11 31 0 52 12 22 11 27 -5
38 -15 12 -16 18 -6 50 13 39 17 42 41 27 13 -8 13 -11 1 -22 -8 -7 -11 -8 -8
-2 3 6 -1 11 -9 11 -21 0 -11 -22 12 -24 29 -3 48 -8 60 -15 6 -4 20 -1 31 7
28 20 20 53 -13 53 -13 0 -21 -4 -18 -9 3 -5 0 -9 -5 -9 -6 0 -11 7 -11 15 0
8 5 15 10 15 6 0 9 6 8 13 -2 6 3 11 10 9 8 -1 11 2 7 8 -3 6 -11 8 -16 5 -5
-4 -9 -1 -9 5 0 6 -6 8 -12 5 -7 -4 -3 2 10 12 14 12 19 22 13 28 -5 6 -10 19
-11 30 -5 46 1 64 22 71 22 7 48 28 48 38 0 3 10 17 21 31 31 34 93 45 291 49
61 1 68 5 43 26 -8 7 -15 19 -15 27 0 8 -4 12 -9 8 -5 -3 -12 3 -14 12 -4 15
-6 15 -12 -4 -4 -13 -14 -23 -21 -23 -8 0 -14 -7 -14 -15 0 -12 -3 -12 -20 2
-11 10 -20 23 -20 30 0 7 -8 13 -18 13 -10 0 -22 4 -27 9 -6 5 -20 5 -32 0z
m-272 -172 c-1 -12 -15 -9 -19 4 -3 6 1 10 8 8 6 -3 11 -8 11 -12z m-86 -117
c3 -5 -1 -10 -10 -10 -9 0 -13 5 -10 10 3 6 8 10 10 10 2 0 7 -4 10 -10z m-5
-29 c0 -6 -4 -13 -10 -16 -5 -3 -10 1 -10 9 0 9 5 16 10 16 6 0 10 -4 10 -9z
m108 -38 c-1 -10 1 -24 5 -30 6 -9 2 -13 -11 -13 -15 0 -19 7 -18 30 1 18 6
30 14 30 7 0 12 -8 10 -17z m-140 -115 c0 -13 0 -27 2 -33 1 -5 2 -19 1 -29
-1 -18 -2 -18 -20 -2 -25 23 -30 58 -11 73 22 18 30 16 28 -9z m-88 -123 c0
-8 -7 -15 -15 -15 -16 0 -20 12 -8 23 11 12 23 8 23 -8z m100 -15 c0 -5 -2
-10 -4 -10 -3 0 -8 5 -11 10 -3 6 -1 10 4 10 6 0 11 -4 11 -10z m-42 -48 c2
-13 -2 -22 -10 -22 -7 0 -13 11 -13 25 0 30 19 27 23 -3z m-65 -18 c-3 -8 -12
-13 -20 -10 -8 3 -17 6 -19 6 -3 0 -3 4 1 10 3 5 13 6 22 3 12 -5 14 -3 8 7
-5 8 -4 11 3 6 6 -4 8 -14 5 -22z m-56 -70 c-2 -3 -13 -6 -25 -9 -15 -3 -19 1
-15 16 4 15 9 17 25 8 11 -6 18 -13 15 -15z m-81 -19 c-1 -20 -3 -22 -15 -11
-7 8 -10 19 -7 25 12 19 24 12 22 -14z m104 -25 c0 -5 -7 -7 -15 -4 -8 4 -15
8 -15 10 0 2 7 4 15 4 8 0 15 -4 15 -10z m-65 -60 c3 -5 1 -10 -4 -10 -6 0
-11 5 -11 10 0 6 2 10 4 10 3 0 8 -4 11 -10z m-75 -55 c0 -8 -4 -15 -10 -15
-5 0 -10 7 -10 15 0 8 5 15 10 15 6 0 10 -7 10 -15z"/>
<path d="M1795 4910 c3 -5 8 -10 11 -10 2 0 4 5 4 10 0 6 -5 10 -11 10 -5 0
-7 -4 -4 -10z"/>
<path d="M725 4900 c-3 -6 1 -7 9 -4 18 7 21 14 7 14 -6 0 -13 -4 -16 -10z"/>
<path d="M1110 4892 c0 -12 19 -26 26 -19 2 2 -2 10 -11 17 -9 8 -15 8 -15 2z"/>
<path d="M1165 4880 c3 -5 8 -10 11 -10 2 0 4 5 4 10 0 6 -5 10 -11 10 -5 0
-7 -4 -4 -10z"/>
<path d="M1380 4861 c0 -11 11 -32 24 -47 l23 -28 12 23 c10 18 10 22 -1 20
-30 -4 -39 2 -36 23 2 11 -3 23 -9 25 -8 3 -13 -4 -13 -16z"/>
<path d="M8428 4808 c-27 -21 -157 -206 -164 -233 -11 -43 10 -55 92 -55 l73
0 3 -37 c3 -38 3 -38 51 -41 l47 -3 0 39 c0 26 5 42 15 46 19 7 20 62 0 69
-11 5 -15 30 -17 114 l-3 108 -40 3 c-22 2 -48 -3 -57 -10z m-2 -204 c-5 -13
-66 -21 -66 -8 0 3 15 26 33 51 l32 46 3 -38 c2 -20 1 -43 -2 -51z"/>
<path d="M8668 4804 c-42 -22 -61 -69 -66 -162 -8 -142 28 -199 131 -208 108
-11 162 54 161 191 0 99 -22 152 -74 177 -42 22 -115 23 -152 2z m106 -96 c25
-35 22 -142 -5 -169 -41 -41 -72 4 -67 97 5 88 38 120 72 72z"/>
<path d="M9037 4813 c-4 -3 -7 -89 -7 -190 l0 -183 50 0 50 0 0 103 1 102 39
-45 40 -45 39 45 40 45 3 -100 3 -100 48 -3 47 -3 0 185 c0 173 -1 185 -19
191 -38 12 -69 -6 -112 -66 -23 -32 -45 -59 -48 -59 -3 0 -24 25 -46 56 -22
31 -48 60 -57 65 -19 11 -62 12 -71 2z"/>
<path d="M9447 4806 c-20 -21 -10 -76 14 -76 17 0 19 -9 19 -105 0 -97 -1
-105 -19 -105 -22 0 -35 -30 -26 -60 6 -19 14 -21 98 -18 l92 3 3 32 c3 27 -1
35 -22 45 -25 11 -26 14 -26 105 0 91 1 94 25 103 20 8 25 16 25 44 0 41 -10
46 -100 46 -46 0 -73 -5 -83 -14z"/>
<path d="M9674 4807 c-2 -7 -3 -91 -2 -187 l3 -175 48 -3 47 -3 0 110 c0 61 3
111 6 111 3 0 26 -19 50 -42 41 -39 44 -45 44 -94 0 -76 5 -84 55 -84 30 0 45
5 49 16 10 27 7 324 -4 345 -7 13 -21 19 -45 19 -41 0 -60 -27 -51 -71 9 -44
-7 -42 -60 7 -64 61 -127 84 -140 51z"/>
<path d="M10033 4814 c-7 -3 -13 -23 -13 -45 0 -32 3 -39 20 -39 19 0 20 -7
20 -105 0 -98 -1 -105 -20 -105 -17 0 -20 -7 -20 -40 l0 -40 95 0 95 0 0 40
c0 33 -3 40 -19 40 -18 0 -20 9 -23 101 -3 97 -2 102 20 110 17 7 22 16 22 43
0 18 -6 36 -12 38 -18 7 -150 8 -165 2z"/>
<path d="M10313 4804 c-49 -25 -68 -73 -68 -179 0 -100 12 -135 58 -169 34
-25 129 -29 171 -6 46 24 77 114 44 124 -55 17 -68 16 -77 -7 -13 -32 -37 -50
-60 -42 -29 9 -44 66 -36 131 5 46 11 57 32 67 22 10 28 8 44 -12 11 -13 19
-30 19 -38 0 -12 8 -14 37 -8 21 4 41 9 45 11 12 8 9 56 -5 84 -27 54 -136 77
-204 44z"/>
<path d="M10624 4802 c-44 -28 -64 -85 -64 -183 0 -106 21 -150 85 -174 80
-31 161 -5 195 61 18 37 25 158 11 210 -6 22 -24 53 -41 69 -26 25 -40 30 -93
33 -48 2 -69 -1 -93 -16z m114 -85 c18 -21 25 -112 13 -150 -21 -62 -75 -56
-87 9 -8 46 0 120 16 139 15 18 44 19 58 2z"/>
<path d="M10870 4804 c0 -8 18 -50 40 -93 22 -43 40 -83 40 -91 0 -7 -18 -45
-40 -85 -22 -40 -40 -78 -40 -84 0 -7 20 -11 50 -11 47 0 51 2 75 40 14 22 27
40 30 40 3 0 16 -18 30 -40 24 -38 28 -40 73 -40 27 0 51 3 54 6 3 3 -14 40
-38 82 -24 42 -44 84 -44 92 1 8 21 53 45 100 47 90 46 100 -8 100 -41 0 -64
-16 -87 -60 -11 -22 -22 -40 -25 -40 -3 0 -14 19 -26 43 -27 52 -34 57 -86 57
-32 0 -43 -4 -43 -16z"/>
<path d="M11223 4813 c-8 -2 -13 -22 -13 -44 0 -32 3 -39 20 -39 19 0 20 -7
20 -105 0 -98 -1 -105 -20 -105 -17 0 -20 -7 -20 -40 l0 -40 95 0 95 0 0 40
c0 33 -3 40 -20 40 -19 0 -20 7 -20 105 0 98 1 105 20 105 17 0 20 7 20 39 0
26 -5 41 -16 45 -18 7 -143 7 -161 -1z"/>
<path d="M11452 4812 c-9 -7 -12 -51 -10 -188 l3 -179 48 -3 47 -3 0 110 c0
61 4 111 8 111 4 0 29 -22 55 -48 46 -47 47 -49 47 -110 l0 -63 48 3 47 3 3
174 c3 195 0 204 -57 199 -34 -4 -36 -6 -39 -43 -5 -70 -8 -71 -73 -11 -59 55
-94 68 -127 48z"/>
<path d="M11813 4813 c-10 -3 -13 -51 -13 -189 l0 -184 50 0 50 0 0 70 0 70
55 0 55 0 0 -57 c0 -76 7 -85 61 -81 l44 3 3 175 c3 192 0 200 -58 200 -40 0
-50 -18 -50 -87 l0 -63 -55 0 -55 0 0 69 c0 54 -4 70 -16 75 -18 7 -53 7 -71
-1z"/>
<path d="M12258 4808 c-16 -13 -108 -309 -108 -348 0 -17 7 -20 46 -20 41 0
46 3 55 30 10 26 16 30 48 30 32 0 38 -4 48 -30 10 -27 15 -30 57 -30 34 0 46
4 46 15 0 24 -92 339 -103 353 -5 6 -24 12 -41 12 -18 0 -39 -6 -48 -12z m56
-179 c10 -50 7 -59 -14 -59 -21 0 -26 23 -14 68 9 31 20 27 28 -9z"/>
<path d="M12534 4806 c-44 -19 -64 -53 -64 -104 0 -57 36 -95 113 -117 54 -15
72 -32 59 -52 -18 -26 -82 -18 -82 12 0 10 -10 15 -29 15 -44 0 -61 -10 -61
-35 0 -60 80 -102 172 -90 67 9 99 38 105 96 7 61 -24 98 -107 128 -65 24 -84
46 -56 66 22 17 54 8 61 -16 7 -23 61 -26 89 -6 22 16 10 51 -28 86 -32 30
-123 39 -172 17z"/>
<path d="M1470 4780 c0 -6 -3 -9 -7 -7 -5 3 -16 2 -25 -2 -17 -6 -17 -7 0 -17
13 -8 21 -6 34 8 10 10 13 20 8 23 -6 4 -10 1 -10 -5z"/>
<path d="M1017 4760 c-14 -11 -31 -20 -39 -20 -7 0 -21 -11 -30 -24 -19 -26
-12 -27 37 -6 40 18 47 18 65 6 13 -9 13 -8 3 5 -7 8 -10 25 -6 37 7 27 3 27
-30 2z"/>
<path d="M844 4744 c3 -9 6 -18 6 -20 0 -2 7 -4 15 -4 9 0 15 9 15 23 0 18 -2
19 -10 7 -6 -10 -10 -11 -10 -2 0 6 -5 12 -11 12 -6 0 -8 -7 -5 -16z"/>
<path d="M1924 4729 c-10 -17 13 -36 27 -22 12 12 4 33 -11 33 -5 0 -12 -5
-16 -11z"/>
<path d="M405 4720 c4 -7 2 -16 -6 -21 -11 -7 -10 -9 4 -9 19 0 23 25 5 36 -7
5 -8 3 -3 -6z"/>
<path d="M902 4673 c-7 -2 -17 -14 -24 -26 -10 -20 -10 -21 7 -7 16 14 17 13
11 -8 -6 -17 -4 -21 8 -16 10 4 16 18 16 35 0 16 -1 29 -2 28 -2 0 -9 -3 -16
-6z"/>
<path d="M1950 4654 c0 -8 6 -11 15 -8 8 4 15 9 15 13 0 4 -7 8 -15 8 -8 0
-15 -6 -15 -13z"/>
<path d="M1275 4600 c-3 -5 -1 -10 4 -10 6 0 11 5 11 10 0 6 -2 10 -4 10 -3 0
-8 -4 -11 -10z"/>
<path d="M1973 4597 c0 -8 6 -14 13 -14 7 0 10 6 7 14 -3 7 -8 13 -12 13 -4 0
-8 -6 -8 -13z"/>
<path d="M250 4590 c-8 -5 -12 -12 -9 -15 4 -3 12 1 19 10 14 17 11 19 -10 5z"/>
<path d="M300 4575 c0 -8 -7 -15 -15 -15 -8 0 -15 -6 -15 -14 0 -9 7 -12 20
-9 11 3 20 9 20 13 0 5 3 15 6 24 3 9 1 16 -5 16 -6 0 -11 -7 -11 -15z"/>
<path d="M2100 4585 c0 -2 7 -8 15 -15 12 -10 15 -10 15 2 0 8 -7 15 -15 15
-8 0 -15 -1 -15 -2z"/>
<path d="M200 4550 c0 -5 5 -10 11 -10 5 0 7 5 4 10 -3 6 -8 10 -11 10 -2 0
-4 -4 -4 -10z"/>
<path d="M234 4543 c4 -7 2 -22 -4 -34 -16 -29 -4 -69 20 -69 11 0 20 -5 20
-12 0 -6 3 -8 6 -5 4 4 1 13 -6 22 -7 8 -10 21 -7 30 4 8 2 17 -3 20 -5 3 -7
12 -4 19 3 7 -3 19 -12 27 -11 9 -15 9 -10 2z"/>
<path d="M2150 4530 c-8 -5 -12 -11 -9 -14 2 -3 11 -1 19 4 8 5 12 11 9 14 -2
3 -11 1 -19 -4z"/>
<path d="M3864 4461 c5 -7 -1 -11 -14 -11 -12 0 -19 -4 -15 -9 3 -5 2 -12 -3
-15 -4 -3 -9 -26 -11 -51 -1 -34 1 -45 10 -40 7 5 10 3 7 -6 -3 -8 3 -26 14
-41 15 -21 17 -32 8 -47 -13 -25 -13 -34 0 -26 6 3 10 -4 10 -15 0 -13 8 -24
20 -27 11 -3 18 -9 15 -13 -7 -11 22 -33 35 -25 12 7 40 -18 40 -36 0 -7 3
-10 6 -6 4 3 3 14 -1 24 -13 29 -11 48 5 54 10 4 1 9 -22 14 -43 8 -51 25 -12
25 14 0 23 4 19 10 -3 6 -2 10 4 10 5 0 12 -6 14 -12 4 -10 6 -10 6 0 1 6 9
12 19 13 13 0 12 3 -6 11 -18 9 -26 7 -42 -7 -16 -14 -23 -16 -32 -7 -9 9 -9
12 0 12 7 0 12 6 11 13 -3 22 1 37 9 36 20 -3 27 3 27 26 0 20 -4 24 -19 19
-12 -4 -16 -2 -12 5 4 6 3 11 -3 11 -16 0 -24 -22 -11 -30 7 -4 10 -15 7 -25
-6 -14 -11 -12 -32 12 -14 15 -24 21 -23 13 2 -8 10 -20 18 -27 11 -9 12 -12
2 -13 -7 0 -25 14 -40 32 -40 47 -39 117 1 118 5 0 5 -4 2 -10 -3 -5 -1 -10 5
-10 16 0 8 52 -9 58 -8 3 -11 0 -7 -7z m40 -237 c3 -8 2 -12 -4 -9 -6 3 -10
10 -10 16 0 14 7 11 14 -7z"/>
<path d="M300 4410 c0 -5 4 -10 9 -10 6 0 13 5 16 10 3 6 -1 10 -9 10 -9 0
-16 -4 -16 -10z"/>
<path d="M4001 4304 c0 -11 3 -14 6 -6 3 7 2 16 -1 19 -3 4 -6 -2 -5 -13z"/>
<path d="M8687 4286 c-69 -25 -117 -88 -117 -152 0 -40 30 -94 64 -115 l30
-18 -26 -10 c-58 -22 -98 -103 -83 -170 17 -79 90 -123 216 -129 181 -9 274
63 256 199 -6 46 -27 73 -76 98 l-33 18 29 12 c40 16 63 59 63 119 0 61 -29
107 -85 136 -51 27 -181 33 -238 12z m141 -138 c7 -7 12 -24 12 -38 0 -14 -5
-31 -12 -38 -19 -19 -66 -15 -78 7 -23 44 -5 81 40 81 14 0 31 -5 38 -12z m16
-214 c21 -20 20 -63 -1 -86 -19 -21 -85 -25 -101 -5 -40 49 -14 107 48 107 22
0 45 -7 54 -16z"/>
<path d="M9210 4279 c-25 -11 -57 -36 -72 -55 -53 -70 -73 -246 -42 -368 30
-118 94 -165 220 -166 87 0 132 17 172 66 47 57 66 143 60 268 -9 159 -48 231
-147 264 -53 18 -140 14 -191 -9z m139 -136 c48 -41 52 -243 6 -289 -29 -29
-45 -30 -76 -5 -22 17 -24 29 -28 111 -4 109 4 155 30 181 24 24 41 24 68 2z"/>
<path d="M287 4276 c-4 -10 -1 -13 9 -9 15 6 19 23 5 23 -5 0 -11 -7 -14 -14z"/>
<path d="M6850 4271 c-6 -12 -10 -120 -10 -280 0 -248 1 -262 20 -281 19 -19
33 -20 250 -20 217 0 231 1 250 20 22 22 25 54 10 94 l-10 26 -175 0 -175 0 0
211 c0 126 -4 218 -10 230 -9 16 -22 19 -75 19 -53 0 -66 -3 -75 -19z"/>
<path d="M7066 4274 c-12 -31 -7 -369 6 -382 17 -17 279 -17 296 0 15 15 16
53 2 79 -9 16 -22 19 -90 19 -79 0 -80 0 -80 25 0 24 2 25 66 25 l65 0 -3 43
-3 42 -62 3 c-59 3 -63 4 -63 27 0 24 2 25 80 25 70 0 81 2 91 21 6 12 8 36 4
55 l-6 34 -148 0 c-127 0 -150 -2 -155 -16z"/>
<path d="M7397 4278 c-4 -15 -1 -27 87 -333 36 -126 70 -233 75 -238 13 -13
93 -21 135 -13 42 8 42 8 121 286 78 271 82 285 77 298 -4 14 -129 17 -150 4
-10 -7 -82 -290 -82 -324 0 -4 -4 -8 -9 -8 -4 0 -23 69 -41 153 -18 83 -37
160 -42 170 -7 14 -23 17 -88 17 -54 0 -80 -4 -83 -12z"/>
<path d="M7947 4283 c-4 -3 -7 -133 -7 -288 0 -233 3 -285 14 -294 10 -9 68
-11 201 -9 152 2 187 6 195 18 14 22 12 96 -3 108 -7 6 -64 13 -128 14 l-114
3 -3 43 -3 42 84 0 c108 0 119 8 115 80 l-3 55 -97 3 -98 3 0 44 0 45 114 0
c91 0 118 3 130 16 19 18 22 94 4 112 -13 13 -389 18 -401 5z"/>
<path d="M3830 4255 c0 -8 2 -15 4 -15 2 0 6 7 10 15 3 8 1 15 -4 15 -6 0 -10
-7 -10 -15z"/>
<path d="M61 4244 c0 -11 3 -14 6 -6 3 7 2 16 -1 19 -3 4 -6 -2 -5 -13z"/>
<path d="M3785 4209 c-4 -6 1 -16 11 -24 20 -14 34 -5 34 23 0 15 -36 16 -45
1z"/>
<path d="M109 4183 c-11 -13 -11 -17 -1 -20 6 -3 12 -11 12 -19 0 -8 5 -14 10
-14 6 0 10 7 10 15 0 8 7 15 16 15 11 0 14 5 10 16 -3 9 -6 18 -6 20 0 11 -39
2 -51 -13z"/>
<path d="M3760 4174 c-10 -11 -9 -14 4 -14 9 0 26 -16 37 -35 30 -51 43 -43
17 10 -26 50 -41 60 -58 39z"/>
<path d="M3848 4174 c5 -9 7 -25 5 -35 -6 -21 7 -25 24 -8 9 9 8 18 -4 35 -17
27 -39 34 -25 8z"/>
<path d="M4010 4173 c0 -4 5 -15 10 -23 7 -11 12 -12 21 -3 8 8 6 14 -10 22
-12 7 -21 8 -21 4z"/>
<path d="M4075 4150 c3 -5 8 -10 11 -10 2 0 4 5 4 10 0 6 -5 10 -11 10 -5 0
-7 -4 -4 -10z"/>
<path d="M4105 4143 c-11 -30 4 -33 22 -5 9 15 8 19 -3 19 -7 0 -16 -7 -19
-14z"/>
<path d="M7 4121 c-3 -11 -1 -23 3 -26 14 -8 22 13 12 31 -8 14 -10 14 -15 -5z"/>
<path d="M4078 4073 c7 -3 16 -2 19 1 4 3 -2 6 -13 5 -11 0 -14 -3 -6 -6z"/>
<path d="M1 3993 c0 -39 4 -72 12 -82 9 -12 9 -13 0 -7 -8 4 -13 1 -13 -8 0
-10 6 -13 17 -9 13 5 15 2 10 -11 -4 -10 -7 -22 -7 -27 0 -6 -4 -7 -10 -4 -6
4 -10 -10 -10 -34 0 -23 3 -41 6 -41 3 0 25 5 50 11 32 8 42 15 35 22 -15 15
-14 27 4 27 8 0 12 -6 9 -13 -7 -18 29 -49 49 -42 8 4 17 18 20 32 6 34 -11
73 -29 66 -8 -3 -14 0 -14 6 0 6 4 11 10 11 5 0 9 6 7 13 -1 7 10 13 26 15 15
2 28 10 29 18 0 8 1 20 2 27 1 7 -8 11 -24 9 -21 -3 -22 -2 -11 11 7 9 19 13
28 10 13 -5 14 -3 4 16 -16 28 -37 37 -56 21 -13 -11 -19 -7 -17 12 1 3 -5 9
-14 12 -12 4 -12 2 -4 -14 6 -11 7 -20 2 -20 -5 0 -7 -11 -4 -25 5 -26 -4 -30
-45 -19 -21 6 -21 7 -6 30 14 22 14 24 -2 24 -11 0 -15 5 -11 15 4 11 -1 15
-18 15 -23 0 -24 -4 -25 -67z m147 -18 c2 -15 -1 -31 -6 -34 -5 -3 -14 -15
-20 -26 -11 -19 -11 -19 -12 6 0 16 -6 26 -15 26 -8 0 -15 -4 -15 -9 0 -4 -7
-8 -15 -8 -8 0 -15 5 -15 10 0 6 7 11 15 11 28 3 33 4 40 11 4 4 13 4 21 1 12
-4 12 0 4 22 -8 20 -7 26 2 23 7 -3 14 -17 16 -33z m-71 -146 c-13 -21 -23
-24 -32 -9 -3 6 -1 10 5 10 6 0 9 4 6 9 -4 5 -3 17 1 27 6 16 7 16 19 -1 10
-13 10 -21 1 -36z"/>
<path d="M9665 3901 c-3 -2 -5 -13 -5 -23 0 -17 44 -18 1240 -18 1233 0 1240
0 1240 20 0 11 -6 21 -12 22 -32 4 -2459 3 -2463 -1z"/>
<path d="M100 3659 c0 -5 5 -7 10 -4 6 3 10 8 10 11 0 2 -4 4 -10 4 -5 0 -10
-5 -10 -11z"/>
<path d="M3760 3570 c0 -5 5 -10 11 -10 5 0 7 5 4 10 -3 6 -8 10 -11 10 -2 0
-4 -4 -4 -10z"/>
<path d="M4000 3550 c0 -5 5 -10 10 -10 6 0 10 5 10 10 0 6 -4 10 -10 10 -5 0
-10 -4 -10 -10z"/>
<path d="M4500 3520 c0 -6 4 -9 9 -6 5 4 12 1 14 -4 3 -6 4 -5 3 2 -3 15 -26
23 -26 8z"/>
<path d="M1096 3491 c-4 -5 -2 -12 3 -15 5 -4 12 -2 15 3 4 5 2 12 -3 15 -5 4
-12 2 -15 -3z"/>
<path d="M980 3335 c0 -9 5 -15 11 -13 6 2 11 8 11 13 0 5 -5 11 -11 13 -6 2
-11 -4 -11 -13z"/>
<path d="M112 3332 c-10 -3 -10 -8 3 -22 16 -17 15 -19 -4 -29 -27 -15 -34
-14 -27 5 3 8 2 12 -4 9 -17 -10 -11 -35 8 -35 23 1 52 24 52 41 0 22 -14 36
-28 31z"/>
<path d="M550 3280 c0 -5 5 -10 11 -10 5 0 7 5 4 10 -3 6 -8 10 -11 10 -2 0
-4 -4 -4 -10z"/>
<path d="M113 3250 c-13 -5 -23 -14 -23 -20 0 -6 4 -9 8 -6 4 2 6 -10 4 -29
-3 -22 -12 -37 -28 -46 -26 -13 -34 -35 -10 -26 8 3 17 0 19 -8 9 -21 1 -49
-14 -53 -11 -3 -12 -2 -1 6 11 7 9 10 -7 15 -12 3 -21 1 -21 -4 0 -5 -9 -9
-20 -9 -19 0 -29 -25 -12 -32 5 -1 12 -16 16 -33 l6 -30 -15 25 -14 25 -1 -37
c0 -31 4 -38 20 -38 24 0 39 -46 20 -63 -10 -9 -11 -9 -6 1 5 8 0 12 -13 12
-12 0 -21 -4 -21 -10 0 -5 5 -10 11 -10 8 0 8 -4 0 -13 -7 -9 -11 -210 -11
-672 l0 -658 132 -132 c109 -107 244 -223 304 -258 15 -8 11 50 -4 65 -7 7
-12 20 -12 30 0 10 -9 27 -21 39 -13 13 -18 27 -14 39 7 21 -10 58 -34 77 -9
7 -11 13 -6 13 6 0 6 3 -1 8 -6 4 -20 27 -33 52 -32 65 -43 82 -71 109 -14 14
-25 28 -25 32 0 5 -6 14 -12 21 -7 6 -13 18 -13 25 0 7 -9 18 -19 25 -13 8
-17 16 -11 23 7 8 -5 27 -35 58 -24 26 -40 49 -35 52 10 6 3 28 -35 110 -19
39 -26 73 -28 127 -2 40 -6 79 -10 85 -4 7 -3 31 2 54 5 23 7 47 5 53 -3 7 2
26 11 42 8 16 15 34 15 41 0 7 11 37 24 67 13 30 22 57 19 60 -4 3 1 14 11 24
15 17 15 22 1 48 -19 37 -19 50 1 58 22 8 26 8 19 -4 -4 -7 3 -9 20 -6 31 6
46 16 23 16 -29 0 -51 37 -45 74 4 26 2 36 -11 41 -10 3 -21 0 -28 -9 -6 -9
-17 -16 -24 -16 -8 0 6 17 30 39 29 26 41 44 37 55 -4 9 -2 16 4 16 10 0 6 81
-6 113 -4 9 -2 23 4 30 6 8 9 37 7 65 -2 29 1 55 6 58 5 3 7 12 4 20 -3 7 -1
16 3 18 5 3 5 27 0 53 -5 25 -8 54 -7 62 2 9 -3 15 -10 13 -10 -2 -10 2 -2 18
6 11 9 20 8 19 -2 0 -13 -4 -25 -9z m1 -125 c-7 -16 -24 -21 -24 -6 0 8 7 13
27 20 1 1 0 -6 -3 -14z"/>
<path d="M580 3250 c13 -8 12 -11 -5 -25 -11 -9 -14 -14 -8 -10 27 13 57 14
72 2 10 -8 12 -8 8 -1 -4 7 0 14 7 17 11 4 14 -1 12 -21 -2 -27 17 -51 41 -52
7 0 12 9 10 20 -4 22 -17 39 -17 21 0 -7 -5 -9 -10 -6 -8 5 -7 12 2 23 10 12
10 14 1 8 -12 -7 -18 5 -14 28 1 5 -4 4 -12 -2 -8 -7 -17 -9 -20 -5 -4 3 -7 1
-7 -6 0 -8 -9 -7 -30 4 -32 16 -54 20 -30 5z"/>
<path d="M55 3180 c4 -13 2 -20 -6 -20 -7 0 -10 -2 -7 -5 3 -3 12 -3 20 0 17
7 13 45 -4 45 -5 0 -6 -9 -3 -20z"/>
<path d="M490 3174 c0 -8 6 -11 15 -8 8 4 15 1 15 -5 0 -6 7 -11 15 -11 25 0
17 15 -15 27 -24 9 -30 9 -30 -3z"/>
<path d="M9 3109 c-10 -6 -7 -9 14 -9 29 0 35 5 14 13 -8 3 -20 1 -28 -4z"/>
<path d="M490 3031 c-8 -6 -19 -7 -25 -3 -5 3 -4 -2 4 -12 8 -9 20 -15 28 -12
8 3 22 0 33 -6 14 -9 22 -9 34 1 32 27 -35 56 -74 32z"/>
<path d="M346 2837 c3 -10 9 -15 12 -12 3 3 0 11 -7 18 -10 9 -11 8 -5 -6z"/>
<path d="M470 2840 c0 -5 5 -10 10 -10 6 0 10 5 10 10 0 6 -4 10 -10 10 -5 0
-10 -4 -10 -10z"/>
<path d="M6843 1955 c-3 -8 -10 -15 -17 -15 -6 0 -24 -11 -39 -25 -21 -20 -27
-35 -27 -66 0 -54 11 -72 59 -94 32 -14 41 -23 41 -43 0 -24 -1 -24 -18 -9
-19 18 -40 21 -66 11 -36 -14 -3 -77 50 -94 19 -6 34 -16 34 -21 0 -15 47 -10
54 6 3 8 11 15 19 15 17 0 53 39 61 67 12 38 -18 89 -63 109 -33 14 -41 23
-41 43 1 24 2 25 14 8 10 -13 21 -15 45 -11 18 4 35 13 38 20 7 20 -23 63 -55
77 -15 6 -30 15 -33 20 -11 15 -50 16 -56 2z m17 -116 c0 -11 -4 -17 -10 -14
-5 3 -10 13 -10 21 0 8 5 14 10 14 6 0 10 -9 10 -21z m50 -130 c0 -5 -4 -9
-10 -9 -5 0 -10 7 -10 16 0 8 5 12 10 9 6 -3 10 -10 10 -16z"/>
<path d="M6475 1920 c-4 -6 -4 -79 0 -160 6 -134 9 -150 26 -155 11 -4 28 -3
39 0 16 5 20 15 20 56 0 27 4 49 10 49 5 0 22 -16 37 -36 32 -41 71 -64 108
-64 22 0 25 4 25 34 0 25 -5 36 -19 41 -10 3 -26 14 -36 25 -16 18 -16 20 4
46 30 38 29 104 -3 141 -23 26 -30 28 -114 31 -61 3 -92 0 -97 -8z m149 -76
c31 -30 12 -64 -36 -64 -26 0 -28 3 -28 40 0 36 3 40 24 40 14 0 32 -7 40 -16z"/>
<path d="M15921 1738 c-11 -29 5 -36 24 -12 19 25 18 34 0 34 -9 0 -19 -10
-24 -22z"/>
<path d="M17500 1741 c-13 -25 -13 -31 1 -31 12 0 38 29 39 43 0 15 -30 6 -40
-12z"/>
<path d="M550 1737 c0 -7 5 -19 10 -27 9 -13 10 -13 10 0 0 10 9 6 25 -13 30
-34 33 -26 5 10 -11 14 -18 28 -16 32 3 4 -4 8 -15 8 -10 1 -19 -4 -19 -10z"/>
<path d="M14190 1575 c0 -108 1 -115 20 -115 18 0 20 7 20 88 l1 87 44 -49
c37 -41 45 -57 45 -88 0 -32 3 -38 20 -38 20 0 21 5 18 112 -3 98 -5 113 -20
116 -15 3 -18 -4 -18 -50 l0 -53 -51 53 c-75 77 -79 73 -79 -63z"/>
<path d="M14421 1671 c-38 -38 -39 -162 -1 -196 10 -9 35 -17 56 -18 28 -1 42
5 60 27 42 48 27 181 -21 200 -32 12 -75 6 -94 -13z m90 -27 c19 -23 18 -132
-1 -144 -21 -13 -54 -12 -68 2 -15 15 -16 112 -2 139 13 23 53 25 71 3z"/>
<path d="M14610 1670 c-41 -41 -23 -79 53 -113 44 -20 53 -61 15 -70 -23 -6
-58 8 -58 23 0 6 -7 10 -15 10 -33 0 -13 -44 27 -59 45 -17 108 12 108 50 0
34 -13 50 -61 74 -56 29 -65 40 -49 60 18 22 57 18 70 -6 14 -24 36 -20 32 7
-8 45 -85 61 -122 24z"/>
<path d="M14787 1672 c-18 -19 -22 -59 -9 -79 4 -6 29 -21 55 -32 49 -21 61
-47 33 -70 -15 -13 -66 1 -66 19 0 5 -7 10 -15 10 -19 0 -19 -34 0 -50 17 -14
85 -17 104 -5 7 4 16 18 21 31 14 35 -6 70 -49 88 -52 20 -69 42 -48 63 19 19
67 10 67 -12 0 -8 7 -15 15 -15 23 0 18 37 -7 54 -30 22 -81 20 -101 -2z"/>
<path d="M14991 1668 c-5 -13 -20 -65 -34 -115 -23 -86 -24 -93 -7 -93 10 0
20 9 23 20 4 15 14 20 40 20 27 0 37 -5 42 -20 7 -22 35 -28 35 -6 0 7 -4 26
-9 42 -5 16 -19 62 -30 102 -23 75 -44 93 -60 50z m48 -125 c1 -8 -10 -13 -25
-13 -25 0 -26 2 -19 37 4 21 9 42 13 47 5 10 30 -46 31 -71z"/>
<path d="M15144 1682 c-6 -4 -16 -17 -23 -30 -17 -31 5 -73 44 -85 61 -20 82
-57 44 -78 -18 -9 -27 -7 -50 10 -48 35 -66 24 -30 -20 15 -18 28 -23 61 -22
52 2 70 17 70 58 0 35 -15 52 -73 78 -30 14 -38 22 -35 40 4 31 52 36 70 8 16
-26 38 -27 38 -2 0 38 -80 67 -116 43z"/>
<path d="M15368 1684 c-5 -4 -8 -56 -8 -116 l0 -108 55 0 c66 0 99 25 110 84
15 79 -25 136 -101 143 -27 3 -52 1 -56 -3z m86 -35 c69 -32 48 -159 -26 -159
l-28 0 0 85 c0 92 4 97 54 74z"/>
<path d="M15567 1684 c-4 -4 -7 -56 -7 -116 l0 -108 76 0 c67 0 75 2 64 15 -8
9 -30 15 -56 15 -43 0 -44 0 -44 34 0 34 1 35 43 38 23 2 42 8 42 13 0 6 -19
11 -42 13 -42 3 -43 4 -43 37 0 34 0 34 53 37 28 2 52 8 52 13 0 11 -127 19
-138 9z"/>
<path d="M15740 1575 l0 -115 60 0 c33 0 60 4 60 9 0 12 -26 21 -61 21 l-29 0
0 100 c0 82 -3 100 -15 100 -12 0 -15 -19 -15 -115z"/>
<path d="M15880 1675 c0 -8 5 -15 10 -15 6 0 10 -37 10 -90 0 -53 -4 -90 -10
-90 -5 0 -10 -4 -10 -10 0 -5 18 -10 40 -10 29 0 40 4 40 15 0 8 -4 15 -10 15
-6 0 -10 35 -10 85 0 50 4 85 10 85 6 0 10 7 10 15 0 11 -11 15 -40 15 -29 0
-40 -4 -40 -15z"/>
<path d="M16016 1675 c-15 -16 -36 -76 -36 -105 0 -38 23 -92 46 -107 50 -32
138 21 109 66 -9 16 -25 13 -25 -3 0 -41 -50 -52 -77 -18 -17 21 -17 113 0
136 18 24 59 17 72 -11 13 -30 35 -29 35 1 0 48 -88 76 -124 41z"/>
<path d="M16170 1675 c0 -8 5 -15 10 -15 6 0 10 -35 10 -85 0 -50 -4 -85 -10
-85 -5 0 -10 -7 -10 -15 0 -11 11 -15 40 -15 38 0 52 12 30 25 -5 3 -10 44
-10 91 0 49 4 84 10 84 6 0 10 7 10 15 0 11 -11 15 -40 15 -29 0 -40 -4 -40
-15z"/>
<path d="M16305 1588 c-15 -57 -30 -109 -33 -115 -2 -8 4 -13 17 -13 14 0 21
6 21 19 0 13 9 20 30 23 34 5 44 0 53 -24 6 -17 37 -26 37 -12 0 4 -13 53 -30
111 -16 57 -30 106 -30 108 0 3 -8 5 -18 5 -15 0 -24 -20 -47 -102z m75 -55
c0 -2 -13 -3 -29 -3 -29 0 -29 1 -20 38 18 67 21 68 35 17 7 -27 13 -51 14
-52z"/>
<path d="M16470 1670 c-38 -38 -22 -76 50 -112 50 -26 58 -39 35 -62 -22 -21
-41 -20 -65 4 -23 23 -40 26 -40 7 0 -36 60 -62 107 -46 67 22 54 96 -23 129
-37 16 -45 24 -42 42 4 32 52 38 68 9 12 -24 40 -28 40 -6 0 27 -38 55 -75 55
-22 0 -43 -8 -55 -20z"/>
<path d="M16680 1675 c0 -10 10 -15 30 -15 l30 0 0 -100 c0 -81 3 -100 15
-100 11 0 15 20 17 98 l3 97 28 3 c15 2 27 9 27 18 0 11 -17 14 -75 14 -60 0
-75 -3 -75 -15z"/>
<path d="M16890 1687 c0 -1 -13 -49 -30 -107 -16 -58 -30 -108 -30 -112 0 -17
32 -7 37 12 4 16 14 20 44 20 32 0 39 -3 39 -20 0 -14 7 -20 21 -20 13 0 19 5
17 13 -3 6 -18 58 -33 115 -23 82 -32 102 -47 102 -10 0 -18 -1 -18 -3z m35
-114 c7 -42 6 -43 -20 -43 -19 0 -26 4 -22 14 3 8 9 31 13 51 8 44 19 35 29
-22z"/>
<path d="M17020 1575 c0 -96 3 -115 15 -115 12 0 15 14 15 69 0 39 5 73 10 76
6 3 10 3 10 -2 1 -4 11 -21 24 -36 l23 -29 32 43 31 43 0 -82 c0 -66 3 -82 15
-82 12 0 15 19 15 115 0 123 -9 142 -43 88 -9 -16 -25 -38 -35 -51 l-18 -23
-35 50 c-52 77 -59 70 -59 -64z"/>
<path d="M17260 1575 l0 -115 58 0 c33 0 66 6 77 14 24 18 25 74 0 92 -14 11
-16 16 -6 28 7 8 11 27 9 43 -4 34 -37 53 -95 53 l-43 0 0 -115z m101 64 c16
-31 -12 -55 -58 -50 -8 1 -13 15 -13 36 0 32 2 35 30 35 20 0 33 -7 41 -21z
m14 -114 c0 -28 -3 -30 -42 -33 l-43 -3 0 36 0 36 43 -3 c39 -3 42 -5 42 -33z"/>
<path d="M17450 1575 l0 -115 71 0 c52 0 70 3 67 13 -3 7 -26 13 -56 15 -52 3
-52 3 -52 38 0 34 0 34 45 34 33 0 45 4 45 15 0 11 -12 15 -45 15 -45 0 -45 0
-45 35 l0 35 56 0 c40 0 55 3 52 13 -3 7 -29 13 -71 15 l-67 3 0 -116z"/>
<path d="M17620 1575 c0 -108 1 -115 20 -115 17 0 19 8 22 77 l3 77 25 -37
c14 -20 27 -37 30 -37 3 0 17 19 32 43 l28 42 0 -82 c0 -77 2 -83 20 -83 20 0
21 5 18 112 -2 76 -7 113 -15 115 -7 3 -29 -19 -49 -47 l-37 -51 -34 51 c-54
80 -63 70 -63 -65z"/>
<path d="M580 1659 c0 -5 -4 -8 -9 -5 -5 4 -12 0 -14 -6 -4 -10 -7 -10 -15 0
-7 11 -10 11 -15 -2 -5 -12 0 -16 19 -16 16 0 23 -4 18 -11 -5 -8 3 -10 24 -7
25 4 29 2 21 -9 -7 -7 -21 -14 -33 -14 -20 -1 -20 -2 -1 -6 11 -3 25 -12 31
-21 8 -12 13 -12 19 -2 4 7 2 16 -5 20 -11 7 -10 12 3 25 21 21 22 36 1 28
-10 -4 -17 1 -21 16 -5 21 -23 30 -23 10z"/>
<path d="M590 1522 c0 -5 14 -7 30 -4 17 2 30 6 30 8 0 2 -13 4 -30 4 -16 0
-30 -4 -30 -8z"/>
<path d="M608 1493 c7 -3 16 -2 19 1 4 3 -2 6 -13 5 -11 0 -14 -3 -6 -6z"/>
<path d="M2677 1475 c-4 -8 -3 -16 1 -19 4 -3 9 4 9 15 2 23 -3 25 -10 4z"/>
<path d="M3134 1478 c-29 -13 -21 -58 10 -58 17 0 21 6 21 29 0 37 -5 41 -31
29z"/>
<path d="M2630 1440 c0 -5 5 -10 11 -10 5 0 7 5 4 10 -3 6 -8 10 -11 10 -2 0
-4 -4 -4 -10z"/>
<path d="M2584 1405 c8 -8 18 -15 22 -15 3 0 1 7 -6 15 -7 8 -17 15 -22 15 -5
0 -3 -7 6 -15z"/>
<path d="M2600 1360 c-9 -6 -10 -10 -3 -10 6 0 15 5 18 10 8 12 4 12 -15 0z"/>
<path d="M2735 1290 c3 -5 8 -10 11 -10 2 0 4 5 4 10 0 6 -5 10 -11 10 -5 0
-7 -4 -4 -10z"/>
<path d="M2613 1273 c0 -7 10 -13 21 -12 12 0 15 3 8 6 -6 2 -10 8 -8 12 3 4
-1 8 -8 8 -7 0 -13 -6 -13 -14z"/>
<path d="M2451 1254 c0 -11 3 -14 6 -6 3 7 2 16 -1 19 -3 4 -6 -2 -5 -13z"/>
<path d="M2956 1254 c-4 -9 -4 -19 -1 -22 2 -3 7 3 11 12 4 9 4 19 1 22 -2 3
-7 -3 -11 -12z"/>
<path d="M2590 1246 c0 -16 32 -46 51 -46 8 0 4 6 -9 16 -12 8 -20 19 -17 24
3 4 -2 10 -10 14 -9 3 -15 0 -15 -8z"/>
<path d="M2834 1234 c4 -9 -1 -14 -15 -14 -12 0 -17 -4 -13 -11 3 -6 16 -8 29
-5 19 5 24 1 28 -22 8 -40 2 -67 -14 -67 -8 0 -13 8 -11 20 2 19 2 19 -11 3
-8 -10 -18 -18 -22 -18 -5 0 2 11 15 26 21 21 22 27 10 34 -11 7 -16 5 -18 -5
-2 -8 -8 -15 -13 -15 -6 0 -7 -4 -4 -10 3 -5 2 -10 -3 -10 -4 0 -17 -8 -28
-18 -11 -11 -26 -22 -34 -25 -10 -4 -9 -6 5 -5 33 2 52 -11 50 -35 -1 -12 -9
-23 -18 -25 -12 -3 -15 2 -11 15 5 17 5 17 -6 -1 -10 -15 -9 -20 1 -27 8 -5
20 -7 27 -4 8 3 18 5 23 5 6 0 7 6 4 13 -4 6 2 3 12 -8 13 -14 30 -20 58 -19
57 1 59 2 45 19 -7 9 -20 13 -29 10 -11 -3 -10 0 3 10 24 18 38 19 54 3 9 -9
12 -9 12 0 0 7 -4 12 -10 12 -5 0 -10 5 -10 11 0 6 6 9 14 6 12 -5 13 -1 1 26
-9 21 -21 33 -37 35 -24 3 -44 35 -51 81 -2 14 -11 25 -21 27 -12 2 -16 -2
-12 -12z m-13 -124 c5 0 9 -10 9 -21 0 -21 1 -21 25 5 20 22 29 25 39 17 8 -7
19 -10 26 -9 19 4 23 -19 5 -26 -9 -3 -14 -2 -11 3 3 5 -5 8 -19 7 -14 0 -24
-5 -23 -11 0 -5 -3 -21 -9 -34 l-10 -25 -19 32 c-10 18 -23 32 -29 32 -5 0
-16 4 -24 9 -17 11 -4 34 16 27 8 -3 19 -6 24 -6z"/>
<path d="M666 1225 c-3 -9 0 -15 9 -15 8 0 15 7 15 15 0 8 -4 15 -9 15 -5 0
-11 -7 -15 -15z"/>
<path d="M2700 1231 c0 -6 12 -13 28 -17 15 -3 32 -7 38 -9 7 -2 10 4 7 16 -6
21 -19 25 -25 8 -3 -9 -10 -9 -26 0 -14 7 -22 8 -22 2z"/>
<path d="M3130 1209 c11 -8 7 -9 -17 -5 -18 3 -33 2 -33 -3 0 -16 29 -21 57
-10 22 8 24 12 13 19 -21 13 -38 12 -20 -1z"/>
<path d="M2728 1172 c9 -10 19 -17 21 -16 6 5 -20 34 -30 34 -5 0 -1 -8 9 -18z"/>
<path d="M2976 1175 c7 -18 30 -20 40 -3 4 7 3 8 -4 4 -7 -4 -12 -2 -12 3 0 6
-7 11 -15 11 -9 0 -12 -6 -9 -15z"/>
<path d="M2947 1173 c-12 -12 -7 -31 10 -37 9 -4 20 -3 24 1 8 10 -25 46 -34
36z"/>
<path d="M3030 1170 c0 -5 5 -10 11 -10 5 0 7 5 4 10 -3 6 -8 10 -11 10 -2 0
-4 -4 -4 -10z"/>
<path d="M3083 1174 c4 -4 0 -16 -10 -26 -9 -10 -12 -18 -6 -18 5 0 18 8 27
19 16 17 16 19 -1 25 -9 4 -14 4 -10 0z"/>
<path d="M3172 1154 c-16 -8 -20 -14 -12 -19 6 -4 18 1 25 11 12 16 16 17 24
5 8 -12 12 -13 25 -1 18 14 18 14 33 -14 9 -16 11 -17 16 -2 4 10 3 15 -3 11
-6 -3 -10 1 -10 9 0 18 -62 18 -98 0z"/>
<path d="M3320 1159 c0 -5 5 -7 10 -4 6 3 10 8 10 11 0 2 -4 4 -10 4 -5 0 -10
-5 -10 -11z"/>
<path d="M2658 1153 c7 -3 16 -2 19 1 4 3 -2 6 -13 5 -11 0 -14 -3 -6 -6z"/>
<path d="M2290 1146 c0 -2 8 -10 18 -17 15 -13 16 -12 3 4 -13 16 -21 21 -21
13z"/>
<path d="M3117 1133 c3 -7 6 -13 8 -13 2 0 5 6 8 13 3 8 -1 14 -8 14 -7 0 -11
-6 -8 -14z"/>
<path d="M2110 1131 c0 -15 18 -23 25 -11 4 6 10 8 15 5 5 -3 11 -1 15 5 4 6
-6 10 -24 10 -17 0 -31 -4 -31 -9z"/>
<path d="M2190 1133 c0 -13 53 -35 95 -40 l40 -4 -24 25 c-25 27 -37 34 -26
16 4 -6 -6 -10 -24 -10 -16 0 -33 5 -36 10 -7 12 -25 13 -25 3z"/>
<path d="M2614 1126 c-27 -29 -25 -76 3 -76 8 0 21 -7 29 -15 22 -21 36 -19
29 5 -6 20 2 25 34 20 12 -1 13 1 2 14 -7 9 -10 25 -6 38 5 17 4 19 -4 8 -8
-12 -12 -12 -28 2 -21 18 -44 19 -59 4z"/>
<path d="M3197 1128 c2 -5 13 -8 24 -8 10 0 19 3 19 8 0 4 -11 7 -24 7 -13 0
-22 -3 -19 -7z"/>
<path d="M2336 1101 c-4 -7 -5 -15 -2 -18 9 -9 19 4 14 18 -4 11 -6 11 -12 0z"/>
<path d="M2140 1080 c0 -22 8 -25 30 -10 13 9 13 11 0 20 -22 15 -30 12 -30
-10z"/>
<path d="M3091 1097 c2 -1 13 -9 24 -17 19 -14 19 -14 6 3 -7 9 -18 17 -24 17
-6 0 -8 -1 -6 -3z"/>
<path d="M3607 1093 c-4 -3 -7 -11 -7 -17 0 -6 5 -5 12 2 6 6 9 14 7 17 -3 3
-9 2 -12 -2z"/>
<path d="M2518 1073 c7 -3 16 -2 19 1 4 3 -2 6 -13 5 -11 0 -14 -3 -6 -6z"/>
<path d="M743 1063 c-7 -2 -13 -14 -13 -26 0 -18 -2 -19 -10 -7 -8 13 -10 13
-10 1 0 -8 -9 -25 -21 -37 -16 -17 -19 -26 -10 -42 6 -11 7 -22 4 -26 -3 -3
-1 -6 5 -6 7 0 12 9 12 20 0 11 6 20 14 20 7 0 16 9 19 20 3 11 1 18 -4 14
-14 -8 -11 2 11 41 11 19 19 35 17 34 -1 0 -8 -3 -14 -6z"/>
<path d="M3187 1062 c-24 -5 -18 -36 8 -39 11 -2 14 0 7 3 -10 5 -10 9 -1 20
14 17 10 22 -14 16z"/>
<path d="M2978 1034 c2 -14 8 -22 11 -17 3 4 10 11 14 15 5 3 0 11 -11 17 -17
9 -19 7 -14 -15z"/>
<path d="M2330 1036 c0 -2 7 -7 16 -10 8 -3 12 -2 9 4 -6 10 -25 14 -25 6z"/>
<path d="M2200 1009 c0 -4 11 -9 25 -11 15 -3 25 -1 25 6 0 6 -11 11 -25 11
-14 0 -25 -3 -25 -6z"/>
<path d="M14806 958 c-14 -19 -16 -67 -16 -324 0 -273 2 -304 18 -322 17 -21
24 -21 1223 -28 l1207 -6 16 25 c15 23 16 49 7 284 -6 142 -11 275 -11 295 0
24 -8 45 -22 61 l-23 25 -1192 6 -1192 6 -15 -22z m431 -200 c18 -18 20 -75 4
-91 -7 -7 -6 -14 4 -21 26 -19 29 -69 7 -96 -18 -22 -28 -25 -94 -25 l-73 0
-3 114 c-1 63 0 121 3 129 8 21 129 12 152 -10z m158 12 c8 -13 64 -220 65
-237 0 -22 -58 -16 -65 7 -8 27 -51 27 -65 0 -13 -24 -60 -28 -60 -4 0 18 46
189 60 222 10 23 53 31 65 12z m193 -18 c2 -13 -3 -25 -12 -28 -12 -5 -16 -22
-16 -74 0 -52 4 -69 16 -74 9 -3 14 -15 12 -28 -3 -21 -9 -23 -58 -23 -49 0
-55 2 -58 23 -2 13 3 25 12 28 22 9 23 139 1 148 -15 6 -20 37 -8 50 4 4 30 6
58 4 43 -3 50 -6 53 -26z m90 -8 l19 -36 21 36 c20 34 56 48 75 30 3 -4 -8
-33 -24 -66 l-31 -60 31 -58 c17 -32 31 -61 31 -64 0 -3 -15 -6 -34 -6 -25 0
-36 5 -41 19 -3 11 -12 24 -20 31 -11 9 -17 5 -30 -19 -12 -24 -22 -31 -45
-31 -37 0 -37 5 -3 75 l27 55 -27 55 c-34 70 -34 75 3 75 24 0 33 -7 48 -36z
m300 9 c-3 -26 -7 -28 -50 -31 -39 -3 -48 -7 -48 -22 0 -15 9 -19 38 -22 32
-3 37 -7 40 -30 3 -27 1 -28 -37 -28 -34 0 -41 -3 -41 -20 0 -17 7 -20 50 -20
49 0 50 -1 50 -30 l0 -31 -82 3 -83 3 -3 105 c-4 155 -7 150 89 150 l80 0 -3
-27z m243 1 c21 -23 24 -35 24 -106 0 -75 -2 -81 -28 -104 -28 -24 -76 -31
-112 -18 -44 17 -63 163 -28 214 24 35 33 40 79 40 31 0 46 -6 65 -26z m228
-11 c6 -21 22 -77 35 -125 13 -48 21 -89 18 -92 -14 -15 -54 -5 -59 14 -4 14
-14 20 -33 20 -19 0 -29 -6 -33 -20 -5 -20 -50 -29 -61 -12 -4 7 39 182 59
240 2 6 18 12 34 12 26 0 32 -5 40 -37z m221 24 c33 -16 48 -74 31 -115 -13
-30 -43 -48 -91 -54 -20 -3 -24 -8 -25 -38 0 -32 -2 -35 -30 -35 l-30 0 -3
114 c-1 63 0 121 2 128 7 17 112 17 146 0z m216 -10 c21 -19 27 -32 27 -67 0
-54 -35 -90 -89 -90 -33 0 -34 -1 -34 -40 0 -38 -2 -40 -30 -40 l-30 0 0 130
0 130 64 0 c53 0 70 -4 92 -23z"/>
<path d="M15150 700 c0 -23 35 -28 43 -6 7 18 -1 26 -25 26 -11 0 -18 -7 -18
-20z"/>
<path d="M15163 623 c-7 -3 -13 -13 -13 -24 0 -14 7 -19 30 -19 20 0 30 5 30
15 0 17 -29 34 -47 28z"/>
<path d="M15360 669 c0 -8 -3 -24 -6 -36 -5 -17 -2 -23 10 -23 12 0 14 7 9 33
-7 35 -13 48 -13 26z"/>
<path d="M16132 708 c-14 -14 -16 -96 -3 -116 14 -23 45 -9 55 26 17 61 -18
124 -52 90z"/>
<path d="M16398 641 c-3 -21 0 -31 9 -31 15 0 17 28 4 49 -6 9 -10 4 -13 -18z"/>
<path d="M16590 690 c0 -28 3 -31 28 -28 21 2 27 8 27 28 0 20 -6 26 -27 28
-25 3 -28 0 -28 -28z"/>
<path d="M16790 690 c0 -26 3 -30 29 -30 16 0 31 6 35 15 10 26 -5 45 -35 45
-26 0 -29 -4 -29 -30z"/>
<path d="M2530 940 c-9 -6 -10 -10 -3 -10 6 0 15 5 18 10 8 12 4 12 -15 0z"/>
</g>
</svg>
